<svg width="19" height="19" viewBox="0 0 19 19" fill="none" xmlns="http://www.w3.org/2000/svg">
<path fill-rule="evenodd" clip-rule="evenodd" d="M10.3592 16.9322L10.7883 16.207C11.1208 15.6449 11.2871 15.3631 11.5547 15.2079C11.8222 15.052 12.1587 15.0464 12.8316 15.0345C13.8259 15.0179 14.449 14.957 14.9715 14.74C15.4517 14.5411 15.8881 14.2495 16.2557 13.882C16.6232 13.5144 16.9148 13.078 17.1137 12.5978C17.4154 11.871 17.4154 10.9487 17.4154 9.10416V8.31249C17.4154 5.72137 17.4154 4.42541 16.8319 3.47383C16.5057 2.94119 16.0581 2.49331 15.5257 2.16679C14.5733 1.58333 13.2773 1.58333 10.6862 1.58333H8.3112C5.72007 1.58333 4.42411 1.58333 3.47253 2.16679C2.9399 2.49299 2.49201 2.9406 2.16549 3.47304C1.58203 4.42541 1.58203 5.72216 1.58203 8.31249V9.10416C1.58203 10.9487 1.58203 11.871 1.88286 12.5978C2.08188 13.0781 2.37357 13.5145 2.74128 13.8821C3.10899 14.2497 3.54551 14.5412 4.02591 14.74C4.54841 14.957 5.17145 15.0171 6.16578 15.0345C6.8387 15.0464 7.17516 15.052 7.44274 15.2079C7.70953 15.3631 7.87657 15.6441 8.20907 16.207L8.63816 16.9322C9.02053 17.5782 9.97607 17.5782 10.3592 16.9322ZM5.9362 7.69104C5.9362 9.07804 7.64857 10.5529 8.69911 11.3272C9.05853 11.5924 9.23824 11.7246 9.4987 11.7246C9.75916 11.7246 9.93886 11.5924 10.2983 11.3272C11.3488 10.5529 13.0612 9.07883 13.0612 7.69104C13.0612 5.57174 11.1018 4.78008 9.4987 6.41724C7.89557 4.78008 5.9362 5.57174 5.9362 7.69104Z" fill="white"/>
</svg>
