<svg width="231" height="250" viewBox="0 0 231 250" fill="none" xmlns="http://www.w3.org/2000/svg">
<g clip-path="url(#clip0_1146_9930)">
<path fill-rule="evenodd" clip-rule="evenodd" d="M49.5213 252.771C61.9601 253.119 73.7103 253.503 86.1251 252.771C105.992 251.541 164.293 253.757 177.108 252.771C178.075 252.696 181.401 253.757 181.471 252.771C182.034 245.9 182.399 176.391 180.725 171.608C179.052 166.826 170.79 143.834 160.264 133.114C157.329 130.217 152.862 129.096 150.395 125.748C148.267 122.099 148.432 119.957 146.331 118.036C145.42 117.203 143.27 116.865 141.672 115.709C140.065 114.111 141.586 110.596 140.927 108.372C139.568 102.818 134.561 99.2558 129.089 98.4163C121.483 96.5956 113.453 98.317 109.81 104.294C108.454 106.519 109.175 109.223 107.507 112.788C107.626 115.482 104.482 116.133 102.603 117.2L98.871 120.974C87.3732 127.446 73.8473 130.94 63.7729 139.635C55.2076 148.328 46.6883 158.375 42.8879 170.135C42.1011 173.34 41.8444 176.652 41.5183 179.926C40.5875 189.495 37.9956 198.783 35.7651 208.104C33.2218 219.848 30.851 232.315 34.2788 244.17C35.2671 246.679 47.2715 252.653 49.5213 252.771Z" fill="white"/>
<path fill-rule="evenodd" clip-rule="evenodd" d="M109.15 105.251C109.25 104.925 109.679 105.017 109.711 105.326C110.034 108.391 109.628 111.593 109.238 114.638C109.051 116.107 108.943 117.635 108.659 119.084C108.622 119.239 108.588 119.395 108.555 119.549C108.649 119.716 108.925 119.903 109.057 120.031L109.63 120.589L110.78 121.702C113.029 123.88 115.277 126.06 117.526 128.239L120.827 131.44C121.959 132.537 123.245 133.588 124.238 134.811C124.776 135.476 124.898 136.291 124.368 137.002C124.106 137.353 123.635 137.61 123.157 137.662C123.344 137.923 123.488 138.217 123.58 138.545C123.766 139.211 123.092 140.03 122.375 139.752C121.561 139.439 120.888 138.878 120.059 138.609C119.222 138.337 118.312 138.284 117.445 138.431C117.047 138.498 116.657 138.597 116.277 138.723C120.342 140.595 124.74 141.67 129.225 141.824C130.139 141.855 131.051 141.843 131.959 141.782C133.487 141.682 135.004 141.451 136.495 141.077C137.668 140.782 138.828 140.412 139.953 139.965C140.506 139.745 141.052 139.504 141.58 139.229L141.626 139.202C141.746 139.127 143.953 137.875 143.991 137.687C144.03 137.499 144.03 137.433 143.958 137.269C143.886 137.106 143.687 136.993 143.687 136.993C143.005 136.701 142.299 136.43 141.554 136.425C139.839 136.415 137.968 137.683 136.55 138.547C134.992 139.496 133.56 140.605 132.061 141.634C132.026 141.658 131.988 141.668 131.951 141.668C131.793 141.668 131.646 141.473 131.748 141.32C132.822 139.738 134.273 138.42 135.79 137.269L136.401 136.811C137.79 135.774 139.416 134.626 141.105 134.376C143.175 134.071 145.336 135.362 147.183 136.118L150.453 137.457C151.036 137.695 151.67 137.898 152.257 138.168L150.887 133.879C150.202 131.733 149.519 129.588 148.843 127.441L148.711 127.02C148.038 124.84 147.419 122.573 146.297 120.582C146.029 120.104 145.722 119.655 145.419 119.202C145.104 118.733 144.987 118.214 144.591 117.795C143.807 116.964 142.683 116.477 141.61 116.158C141.348 116.08 141.426 115.735 141.672 115.709C142.772 115.593 143.822 115.849 144.816 116.314L145.23 116.511C146.17 116.956 147.088 117.37 147.786 118.169C149.378 119.994 150.205 122.292 150.965 124.56L151.168 125.169C151.453 125.075 153.385 125.664 153.626 125.804C160.869 128.867 166.447 134.569 170.526 141.251C174.995 148.573 177.428 156.94 179.438 165.219C180.058 167.775 180.65 170.338 181.22 172.906C178.682 173.883 175.985 174.394 173.609 175.77C172.704 176.295 173.522 177.7 174.429 177.174C176.654 175.885 179.189 175.409 181.571 174.504C182.862 180.451 184.011 186.43 184.973 192.435C187.929 210.863 189.796 229.592 189.678 248.272C189.676 248.684 189.554 249.146 189.328 249.542C189.461 249.477 189.564 249.4 189.623 249.306C190.373 248.129 192.252 249.221 191.498 250.404L191.388 250.575C190.822 251.447 190.294 252.114 189.3 252.606C188.299 253.103 187.214 253.186 186.109 253.214C182.353 253.313 178.594 253.378 174.834 253.424C174.319 249.401 174.109 245.339 173.399 241.339C173.216 240.311 171.649 240.746 171.831 241.771C172.517 245.634 172.737 249.555 173.216 253.444C165.178 253.53 157.135 253.531 149.103 253.554C138.217 253.586 127.333 253.563 116.448 253.557L111.783 253.556C99.2088 253.556 86.6342 253.515 74.0599 253.432L71.0694 253.41C69.8798 246.395 69.0701 239.32 69.0551 232.191C69.0528 231.145 67.4277 231.143 67.4299 232.191C67.445 239.312 68.2457 246.388 69.4244 253.401C66.4471 253.388 63.4713 253.399 60.4938 253.505L58.9784 253.559C55.9463 253.663 52.9081 253.727 49.8817 253.485C46.5217 253.214 43.1234 252.597 40.1108 251.013C38.754 250.299 37.5593 249.386 36.5383 248.312C37.5762 247.708 38.6289 247.129 39.6342 246.471C40.5059 245.9 39.6927 244.492 38.8139 245.067C37.7306 245.777 36.5918 246.394 35.4763 247.05C34.6686 245.972 34.0058 244.775 33.5024 243.484C32.7081 241.446 32.4014 239.253 32.1352 237.095C31.8206 234.552 31.6904 231.99 31.6904 229.429C31.6904 224.044 32.2571 218.675 33.0475 213.354C33.8034 208.257 34.8026 203.202 35.8587 198.162L36.0031 197.475C37.0452 192.52 38.0385 187.551 39.233 182.631C40.3375 178.082 41.6138 173.554 43.135 169.113C44.4889 169.95 45.9058 170.683 47.2386 171.555C48.1164 172.13 48.9316 170.723 48.0589 170.152C46.6369 169.221 45.1203 168.447 43.6853 167.538C45.3862 162.783 47.3827 158.139 49.7763 153.691C54.5702 144.783 61.0303 136.815 69.3043 130.934C73.4462 127.991 77.9905 125.583 82.7625 123.831C87.6277 122.043 92.6695 121.063 97.8252 120.661C97.9725 120.649 98.0551 120.786 98.049 120.912L98.0469 120.935L98.25 120.968C98.3252 120.458 98.4796 119.964 98.7741 119.511C99.4445 118.478 100.716 117.816 101.732 117.182L101.972 117.032C103.181 116.283 104.456 115.545 105.862 115.282C105.91 115.273 105.941 115.324 105.908 115.363C104.981 116.426 103.796 117.238 102.71 118.138L102.46 118.346C101.56 119.087 100.305 119.928 100.271 121.167C100.233 122.626 100.531 124.144 100.639 125.599C100.747 127.05 100.822 128.499 100.86 129.954C101.001 135.167 100.832 140.382 100.371 145.574L102.41 144.208C105.584 142.083 108.768 139.963 112.019 137.973C113.985 136.768 116.196 135.738 118.552 135.785C119.212 135.797 119.958 135.893 120.673 136.096C119.903 135.366 119.166 134.59 118.412 133.856C117.17 132.647 115.929 131.438 114.688 130.231L111.109 126.743L107.529 123.256C106.42 122.173 105.12 121.175 105.238 119.468C105.334 118.107 106.026 116.751 106.499 115.438C106.566 115.249 106.627 115.062 106.684 114.877C107.639 111.703 108.181 108.413 109.15 105.251ZM155.403 241.449C154.663 240.708 153.514 241.857 154.254 242.598L154.646 242.988C155.3 243.641 155.948 244.314 156.401 245.121L156.468 245.243C156.955 246.169 158.359 245.348 157.871 244.422C157.267 243.278 156.308 242.354 155.403 241.449ZM123.687 241.239C121.33 240.789 119.059 240.789 116.702 241.239C115.676 241.436 116.111 243.003 117.134 242.807C119.195 242.413 121.193 242.413 123.255 242.807C124.277 243.002 124.714 241.436 123.687 241.239ZM91.8607 224.852C90.8466 224.595 90.4139 226.162 91.4288 226.419L91.9285 226.545C93.627 226.965 95.2447 227.278 97.0091 226.888C98.0165 226.665 97.6092 225.135 96.6171 225.312L96.5771 225.32C94.9444 225.681 93.4404 225.252 91.8607 224.852ZM148.384 214.292C147.633 213.562 146.483 214.71 147.234 215.441C148.172 216.354 149.278 217.047 150.617 217.084C151.648 217.113 151.662 215.535 150.663 215.461L150.617 215.458C149.719 215.433 149.004 214.896 148.384 214.292ZM52.7399 209.95C53.6756 209.482 52.8535 208.079 51.9199 208.546L46.3034 211.355C45.3677 211.823 46.1898 213.226 47.1235 212.759L52.7399 209.95ZM163.722 210.308C162.676 210.278 162.677 211.904 163.722 211.934C164.705 211.961 165.712 212.334 166.588 212.759C167.525 213.214 168.35 211.813 167.408 211.355C166.263 210.799 165.007 210.344 163.722 210.308ZM111.244 202.458C112.104 201.874 111.292 200.464 110.423 201.054C109.239 201.86 108.165 202.811 107 203.641L106.679 203.864C105.819 204.448 106.631 205.858 107.499 205.268C108.792 204.389 109.952 203.336 111.244 202.458ZM171.679 190.642C170.633 190.642 170.631 192.268 171.679 192.268L171.877 192.268C172.74 192.263 173.65 192.239 174.453 192.584L174.545 192.625C175.486 193.069 176.312 191.668 175.365 191.222C174.188 190.667 172.958 190.643 171.679 190.642ZM81.4275 189.481L81.564 189.43C82.5411 189.079 82.1198 187.507 81.1319 187.862C79.6433 188.397 78.4852 189.408 77.1938 190.285C76.3333 190.87 77.1454 192.279 78.0139 191.689C79.1266 190.933 80.1618 189.976 81.4275 189.481ZM142.384 185.252L142.603 185.134C143.533 184.655 142.712 183.252 141.783 183.73C141.045 184.11 140.385 184.615 139.662 185.018L139.443 185.135C138.512 185.614 139.333 187.017 140.263 186.539C141 186.159 141.66 185.654 142.384 185.252ZM117.661 169.504L117.494 169.343C116.746 168.61 115.596 169.759 116.344 170.492C118.215 172.323 120.425 173.713 122.656 175.058L123.061 175.301C123.96 175.841 124.778 174.436 123.882 173.898L123.286 173.54C121.303 172.343 119.344 171.108 117.661 169.504ZM72.6882 167.986C73.3184 167.168 71.948 166.367 71.3075 167.138L71.2849 167.166C70.6289 168.018 69.8506 168.789 69.0371 169.493L68.8842 169.624C68.3999 170.036 67.5184 170.919 66.8381 170.977C65.8037 171.065 65.7944 172.692 66.8381 172.603C67.8908 172.513 68.7966 171.772 69.5919 171.137C70.7494 170.213 71.7848 169.159 72.6882 167.986ZM159.149 162.064C159.904 161.354 158.788 160.225 158.026 160.89L158 160.915C156.588 162.241 154.558 162.597 152.742 163.046C151.727 163.298 152.157 164.866 153.174 164.614L154.001 164.41C155.858 163.946 157.721 163.406 159.149 162.064ZM126.963 151.809C125.949 151.551 125.517 153.119 126.532 153.377C128.255 153.815 129.888 154.381 131.486 155.168C132.421 155.628 133.245 154.227 132.306 153.764C130.587 152.918 128.819 152.281 126.963 151.809ZM143.564 117.538C143.54 117.464 143.618 117.381 143.692 117.407C145.516 118.088 144.547 120.477 143.98 121.907L143.877 122.169C142.99 124.461 141.749 126.693 140.396 128.745C138.98 130.893 137.407 132.95 135.705 134.88C134.967 135.719 134.201 136.533 133.409 137.323L133.111 137.618C132.311 138.404 131.279 139.786 130.037 139.634C128.701 139.473 127.955 138.045 128.93 136.959C129.619 136.191 130.574 135.579 131.343 134.88C132.107 134.189 132.847 133.476 133.568 132.743C135.043 131.237 136.441 129.645 137.718 127.969C138.954 126.348 140.137 124.681 141.212 122.949L141.426 122.602C142.244 121.254 144.133 119.273 143.564 117.538ZM78.9492 134.567C78.0834 133.975 77.2696 135.383 78.1289 135.971C79.7089 137.051 81.099 138.36 82.8093 139.248C83.725 139.724 84.5393 138.36 83.662 137.862L83.6296 137.845C81.9205 136.956 80.5284 135.647 78.9492 134.567Z" fill="black"/>
<path fill-rule="evenodd" clip-rule="evenodd" d="M170.221 117.232C167.903 106.347 166.417 95.3222 165.086 84.2832C164.442 78.9365 163.928 73.5757 163.333 68.2249C162.776 63.2397 162.128 58.2384 160.828 53.3854C159.62 48.876 157.852 44.4112 155.248 40.5177C152.806 36.8676 149.736 33.74 146.212 31.1286C139.248 25.9688 130.342 23.2233 121.681 24.1337C120.372 24.2719 119.076 24.4934 117.794 24.7901C118.203 24.6702 118.615 24.5583 119.032 24.4609C119.166 24.4286 119.106 24.2479 118.975 24.2599C83.7348 27.4629 75.4454 88.7724 74.6918 101.134C74.6329 102.096 74.5863 103.055 74.5518 104.016C74.2875 106.16 74.0905 108.31 73.997 110.466C73.8916 112.954 73.9424 115.458 74.1717 117.937C74.4074 120.479 74.6755 123.084 75.7361 125.421C76.386 126.86 106.695 124.889 107.008 123.19C107.641 119.76 107.966 116.22 107.768 112.73C107.674 111.058 107.501 109.397 107.144 107.759C107.046 107.312 106.943 106.473 106.681 105.808C109.445 100.553 112.486 95.4482 115.617 90.4022C122.132 79.8957 129.059 69.5842 134.383 58.3946C137.052 52.788 139.683 46.8338 140.942 40.6902L141.146 40.7308C141.121 40.804 141.137 40.8954 141.211 40.9463C146.998 44.9477 150.866 51.0118 153.373 57.5049C156.292 65.0646 157.708 73.228 157.505 81.3284C157.182 94.2004 152.304 110.109 138.505 114.177C135.356 115.106 131.956 115.368 128.73 114.689C127.208 114.368 125.717 113.874 124.344 113.143C122.82 112.332 121.569 111.184 120.141 110.239C118.835 109.375 117.293 111.06 118.044 112.338C119.704 115.163 123.275 116.89 126.343 117.74C129.615 118.648 133.067 118.691 136.4 118.114C136.654 118.071 136.906 118.022 137.156 117.969C137.213 118.807 137.572 119.64 138.157 120.317C138.419 120.621 138.742 120.885 139.104 121.107C139.151 121.924 139.677 122.745 140.532 122.924C145.101 123.875 164.074 121.381 168.637 120.022C169.862 119.656 170.481 118.455 170.221 117.232Z" fill="black"/>
<path fill-rule="evenodd" clip-rule="evenodd" d="M158.305 77.9805C157.963 62.0112 153.985 44.3321 140.351 34.4637C139.483 33.8343 138.18 34.1391 137.46 34.8579C136.869 34.9734 136.326 35.3314 135.965 35.9899C127.903 50.7102 119.416 65.1979 110.508 79.4218C104.788 88.6187 97.8404 97.8273 96.9238 108.975C96.7652 109.186 95.2926 110.849 96.1507 110.728C96.5315 110.528 96.9193 110.365 97.3272 110.244C98.4165 111.832 100.946 111.582 101.547 109.789C103.632 109.849 105.695 110.382 107.681 111C112.553 112.526 117.504 114.034 122.475 115.199C138.854 119.548 156.453 114.015 157.762 94.9129C159.52 92.435 158.568 81.3914 158.305 77.9805Z" fill="white"/>
<path fill-rule="evenodd" clip-rule="evenodd" d="M139.934 106.284L140.368 106.169C141.92 105.746 143.53 105.075 145.012 105.995C145.547 106.327 145.628 107.034 145.205 107.491C144.004 108.789 142.233 108.537 140.609 108.55L140.529 108.551C138.896 108.573 137.275 108.492 135.659 108.257C135.446 108.227 135.404 107.872 135.597 107.787C137.004 107.17 138.452 106.683 139.934 106.284ZM142.568 82.564C144.102 83.4968 146.439 85.6719 144.789 87.9844C142.846 90.0234 140.049 87.6855 138.671 86.6282C137.393 85.8088 135.958 87.9163 137.143 88.8731C147.102 96.2491 151.143 82.8079 143.343 81.4672C142.485 81.3195 142.166 82.2754 142.568 82.564ZM153.233 70.2972C155.707 70.2214 155.71 74.1543 153.233 74.1437C152.493 74.1405 151.754 74.1403 151.014 74.1386C151.444 75.7057 151.199 77.5743 150.423 78.8906C149.911 79.7593 148.686 79.9173 147.97 79.2068C146.734 77.9801 146.491 76.1863 146.927 74.5597L146.838 74.347C146.808 74.2772 146.787 74.2067 146.77 74.1358C144.38 74.1378 141.99 74.1436 139.6 74.1475L136.015 74.1512C133.688 74.1521 131.359 74.171 129.031 74.1492C129.06 74.1925 129.089 74.2356 129.112 74.285C129.257 74.5908 129.319 74.9769 129.364 75.3076C129.442 75.875 129.433 76.4861 129.344 77.0512C129.278 77.4642 129.159 77.956 128.929 78.3451L128.927 78.3533C128.819 78.815 128.682 79.257 128.325 79.5901C128.218 79.6898 128.114 79.761 128.003 79.8114C127.794 80.0298 127.526 80.1743 127.173 80.1789C126.986 80.181 126.78 80.1264 126.581 80.0487C126.275 80.0743 125.959 79.9357 125.688 79.813C125.471 79.7144 125.272 79.5836 125.111 79.4129C125.036 79.395 124.96 79.3655 124.884 79.3186C124.418 79.032 124.24 78.4577 124.216 77.9391C124.215 77.9076 124.216 77.8745 124.215 77.8426C124.197 77.7722 124.182 77.7015 124.17 77.6304C124.015 76.7088 124.204 75.6709 124.401 74.7753C124.45 74.5512 124.491 74.2909 124.552 74.0391C124.087 74.021 123.623 74.0031 123.158 73.984C121.995 73.9364 120.575 74.0923 119.498 73.6003C119.42 73.5648 119.441 73.4603 119.498 73.4194C120.492 72.7088 122.036 72.5937 123.233 72.3597L123.335 72.3393C124.762 72.0465 126.188 71.8002 127.63 71.5898C130.405 71.185 133.216 70.9672 136.015 70.8103C141.746 70.4892 147.496 70.4725 153.233 70.2972Z" fill="black"/>
<path fill-rule="evenodd" clip-rule="evenodd" d="M153.74 67.4507C158.508 67.4507 161.229 68.4765 162.226 68.5564L162.256 68.5586C162.671 68.5851 163.043 68.6198 163.433 68.7708C164.869 69.3238 165.102 70.8298 164.265 71.7789C164.206 73.7427 164.464 76.0374 164.021 78.0076C163.475 86.3134 159.57 87.7151 157.351 88.2267C156.236 88.4836 154.916 88.5858 153.732 88.3146C151.713 88.2393 149.717 87.607 148.009 86.5059C145.63 84.9711 143.863 82.6122 143.29 79.8127C143.018 78.4783 142.891 77.0893 143.039 75.7329L143.061 75.546C142.288 75.176 141.392 75.106 140.469 75.0734C140.027 75.0577 139.592 75.0436 139.17 75.0624C138.757 75.1085 138.349 75.1699 137.94 75.2536C137.493 75.3885 137.071 75.6111 136.681 75.9637L136.654 76.4784C136.581 77.7639 136.412 79.0534 136.152 80.3147C135.768 82.1757 135.15 83.9531 133.835 85.2731C133.389 85.9384 132.838 86.5322 132.17 87.0464C129.74 88.9178 126.439 89.6049 123.409 89.3462C117.259 88.8211 113.704 83.9367 112.884 81.849L112.835 81.7225C112.244 80.1704 111.772 78.1566 109.902 77.8231L109.504 77.7516C108.651 77.5914 107.863 77.3683 107.363 76.5353C107.143 76.1717 107.031 75.765 107.003 75.3503C106.711 75.3728 106.419 75.3942 106.129 75.415C103.811 75.9053 89.9109 76.321 88.8013 76.321C88.8013 76.321 86.6685 77.2191 85.7681 76.5232C85.1439 76.0394 84.9386 75.3946 85.2822 74.6641C85.8006 73.5649 88.1923 72.9038 89.2543 72.6944C89.2543 72.6944 106.392 72.8368 107.626 72.6028C108.389 71.8156 109.754 71.9233 110.895 71.7989C111.839 71.1252 113.16 70.6741 114.204 70.3721C114.416 70.2915 114.627 70.2135 114.832 70.14C116.745 69.4585 118.733 69.0975 120.752 68.9036C122.834 68.7057 124.922 68.7953 126.991 69.0789C127.864 69.1973 128.728 69.3503 129.586 69.5505C131.122 69.7531 132.649 70.0868 134.186 70.4827L134.493 70.5627C136.112 70.9871 137.775 71.3542 139.45 71.0665C140.814 70.8338 142.125 70.3087 143.383 69.7409L143.546 69.6666C146.311 68.4037 150.629 67.4507 153.74 67.4507ZM129.419 72.0685C128.399 71.844 127.963 73.4175 128.987 73.6426C129.711 73.802 130.326 74.1676 130.741 74.787L130.784 74.8543C131.341 75.7407 132.749 74.9225 132.188 74.0303C131.558 73.0263 130.577 72.3231 129.419 72.0685ZM159.299 71.0928C158.94 70.8393 158.395 71.0275 158.187 71.3856C157.957 71.78 158.107 72.2191 158.444 72.477L158.479 72.5022C158.787 72.7201 159.088 73.1105 159.126 73.5106L159.129 73.5607C159.17 74.6077 160.797 74.613 160.756 73.5607C160.716 72.5312 160.12 71.6711 159.299 71.0928Z" fill="black"/>
</g>
<defs>
<clipPath id="clip0_1146_9930">
<rect width="230.4" height="249.6" fill="white" transform="scale(1.0016)"/>
</clipPath>
</defs>
</svg>
