<svg width="8" height="6" viewBox="0 0 8 6" fill="none" xmlns="http://www.w3.org/2000/svg">
<path d="M7.7472 0.204789C7.89172 0.341414 7.97606 0.529841 7.98169 0.728639C7.98732 0.927437 7.91376 1.12033 7.7772 1.26491L3.5267 5.76544C3.45782 5.83825 3.37503 5.89651 3.28325 5.93679C3.19146 5.97707 3.09253 5.99854 2.99231 5.99994C2.89208 6.00133 2.7926 5.98263 2.69972 5.94493C2.60685 5.90723 2.52247 5.8513 2.45158 5.78044L0.201315 3.53018C0.0688199 3.38799 -0.00331176 3.19992 0.000116861 3.00559C0.00354548 2.81127 0.0822667 2.62586 0.219696 2.48843C0.357125 2.351 0.542532 2.27228 0.736855 2.26886C0.931179 2.26543 1.11925 2.33756 1.26144 2.47005L2.96664 4.17425L6.68707 0.234792C6.8237 0.0902725 7.01213 0.00592694 7.21092 0.000300578C7.40972 -0.00532579 7.60262 0.0682277 7.7472 0.204789Z" fill="black"/>
</svg>
