<svg width="9" height="9" viewBox="0 0 9 9" fill="none" xmlns="http://www.w3.org/2000/svg">
<path d="M4.49961 0C3.60967 0 2.73972 0.263897 1.99976 0.758321C1.25981 1.25274 0.683079 1.95549 0.342514 2.77768C0.00194962 3.59988 -0.0871577 4.5046 0.0864607 5.37744C0.260079 6.25028 0.688625 7.05203 1.31791 7.68131C1.94719 8.31059 2.74894 8.73914 3.62178 8.91276C4.49462 9.08638 5.39934 8.99727 6.22154 8.65671C7.04373 8.31614 7.74647 7.73941 8.2409 6.99946C8.73532 6.2595 8.99922 5.38955 8.99922 4.49961C8.9978 3.30667 8.52328 2.16301 7.67974 1.31947C6.83621 0.475942 5.69254 0.00142129 4.49961 0ZM8.0558 5.98456C7.83503 6.50999 7.50098 6.98019 7.07749 7.36159C6.654 7.743 6.15153 8.02619 5.60594 8.19095C5.62563 8.15396 5.64473 8.11666 5.66323 8.07907C5.74629 7.89814 5.87078 7.7393 6.02663 7.61541C6.15463 7.51158 6.40704 7.34688 6.36587 7.14818C6.33633 7.00138 6.16895 6.94141 6.04274 6.90561C5.83929 6.85459 5.63113 6.82459 5.42155 6.8161C5.24138 6.81506 5.06165 6.79798 4.8845 6.76508C4.62313 6.69884 4.56406 6.47238 4.54705 6.2334C4.55444 6.01855 4.51472 5.8047 4.43069 5.60683C4.35007 5.49786 4.24434 5.40995 4.12248 5.35058C4.00062 5.29121 3.86623 5.26213 3.73073 5.2658C3.51412 5.24611 3.29751 5.25685 3.08269 5.22015C2.88141 5.16578 2.67503 5.13248 2.46687 5.1208C2.19118 5.13154 2.06766 5.31861 1.9495 5.53433C1.77934 5.93148 1.56367 6.30754 1.30683 6.65498C0.924938 6.09189 0.700012 5.43719 0.655207 4.75829C0.686117 4.74962 0.716098 4.73793 0.744715 4.72338C0.864657 4.66431 0.948796 4.556 1.07858 4.51393C1.21508 4.49019 1.35486 4.49293 1.49032 4.52199C1.61668 4.53944 1.74465 4.54215 1.87163 4.53004C1.98434 4.51593 2.08862 4.463 2.16654 4.38034C2.24445 4.29769 2.29115 4.19047 2.29859 4.07713C2.31171 3.93132 2.315 3.78479 2.30843 3.63853C2.3156 3.41029 2.46507 3.32794 2.67184 3.30914C3.0621 3.27244 3.97151 3.37627 3.99031 2.77209C3.99836 2.5152 3.69224 2.38272 3.49353 2.3147C3.09435 2.2345 2.69133 2.17475 2.28606 2.13568C2.07826 2.07779 1.89171 1.96089 1.749 1.79913C2.1877 1.35186 2.72895 1.01844 3.32576 0.827821C3.92256 0.637206 4.55687 0.595158 5.17361 0.70533C5.0608 0.724062 4.95016 0.754048 4.84332 0.794838C4.72504 0.854743 4.62106 0.939432 4.53845 1.04314C4.45584 1.14685 4.39655 1.26714 4.36461 1.39582C4.33267 1.52451 4.32884 1.65856 4.35337 1.78886C4.3779 1.91916 4.43022 2.04264 4.50677 2.1509C4.67273 2.44749 4.89861 2.70628 5.17003 2.91083C5.42381 3.09302 5.69342 3.25208 5.97561 3.38612C6.34618 3.5902 6.30142 4.12188 6.39541 4.47992C6.42745 4.62884 6.49624 4.76737 6.59551 4.88291C6.69478 4.99844 6.82139 5.0873 6.96379 5.14139C7.14281 5.20494 7.35673 5.15571 7.51516 5.28102C7.65122 5.38933 7.68344 5.60952 7.76131 5.7581C7.78565 5.81874 7.82581 5.87174 7.87761 5.91157C7.9294 5.9514 7.99094 5.97661 8.0558 5.98456Z" fill="#99A1BE"/>
</svg>
