<svg width="24" height="26" viewBox="0 0 24 26" fill="none" xmlns="http://www.w3.org/2000/svg">
<path d="M3.5 12.8753C3.5 9.18676 4.08371 6.96225 5.32227 5.63337C6.54612 4.32029 8.58324 3.70084 12 3.70084C15.4168 3.70084 17.4539 4.32029 18.6777 5.63337C19.9163 6.96225 20.5 9.18676 20.5 12.8753C20.5 16.5639 19.9163 18.7884 18.6777 20.1172C17.4539 21.4303 15.4168 22.0498 12 22.0498C8.58324 22.0498 6.54612 21.4303 5.32227 20.1172C4.08371 18.7884 3.5 16.5639 3.5 12.8753Z" stroke="white" stroke-width="1.5" stroke-linecap="round" stroke-linejoin="round"/>
<mask id="path-2-inside-1_1146_14608" fill="white">
<path fill-rule="evenodd" clip-rule="evenodd" d="M13.4414 9.15048C13.4414 9.15048 9.95541 11.7169 9.95541 12.8756C9.95541 14.0344 13.4414 16.5987 13.4414 16.5987"/>
</mask>
<path d="M14.3307 10.3584C14.9978 9.86729 15.1405 8.92831 14.6494 8.26118C14.1582 7.59405 13.2192 7.45138 12.5521 7.94253L14.3307 10.3584ZM12.5526 17.807C13.2199 18.2979 14.1588 18.1548 14.6497 17.4875C15.1406 16.8202 14.9976 15.8812 14.3302 15.3904L12.5526 17.807ZM13.4414 9.15048C12.5521 7.94253 12.552 7.94264 12.5518 7.94275C12.5517 7.9428 12.5516 7.94292 12.5514 7.94302C12.5512 7.94323 12.5508 7.94347 12.5504 7.94375C12.5497 7.94432 12.5487 7.94504 12.5475 7.94592C12.5451 7.94767 12.5419 7.95004 12.5379 7.95302C12.5299 7.95897 12.5186 7.96735 12.5043 7.97802C12.4758 7.99937 12.4351 8.02993 12.384 8.06875C12.282 8.14631 12.1379 8.25718 11.9657 8.39349C11.6231 8.66466 11.1608 9.04322 10.6935 9.46493C10.2337 9.87983 9.73248 10.3692 9.33441 10.8607C9.13566 11.1061 8.93503 11.3856 8.77788 11.6842C8.63133 11.9625 8.45541 12.3819 8.45541 12.8756H11.4554C11.4554 13.0797 11.3884 13.1654 11.4325 13.0816C11.466 13.018 11.5377 12.9069 11.6658 12.7488C11.9213 12.4332 12.2916 12.0637 12.7033 11.6921C13.1075 11.3274 13.5167 10.9919 13.8277 10.7457C13.9824 10.6233 14.1106 10.5246 14.1992 10.4573C14.2434 10.4237 14.2777 10.398 14.3002 10.3812C14.3114 10.3727 14.3197 10.3666 14.3249 10.3627C14.3275 10.3608 14.3293 10.3595 14.3302 10.3588C14.3307 10.3584 14.331 10.3582 14.3311 10.3581C14.3311 10.3581 14.3311 10.3581 14.3311 10.3582C14.331 10.3582 14.3309 10.3583 14.3309 10.3583C14.3308 10.3583 14.3307 10.3584 13.4414 9.15048ZM8.45541 12.8756C8.45541 13.3695 8.63136 13.7888 8.77797 14.0672C8.93517 14.3657 9.13585 14.6452 9.33464 14.8905C9.73277 15.3819 10.2341 15.871 10.6939 16.2856C11.1612 16.7071 11.6236 17.0854 11.9662 17.3563C12.1384 17.4926 12.2824 17.6033 12.3845 17.6808C12.4356 17.7196 12.4763 17.7502 12.5048 17.7715C12.5191 17.7822 12.5304 17.7905 12.5384 17.7965C12.5424 17.7995 12.5456 17.8018 12.548 17.8036C12.5492 17.8045 12.5502 17.8052 12.5509 17.8057C12.5513 17.806 12.5516 17.8063 12.5519 17.8065C12.5521 17.8066 12.5522 17.8067 12.5523 17.8068C12.5524 17.8069 12.5526 17.807 13.4414 16.5987C14.3302 15.3904 14.3303 15.3904 14.3304 15.3905C14.3305 15.3905 14.3305 15.3906 14.3306 15.3906C14.3306 15.3907 14.3307 15.3907 14.3306 15.3906C14.3305 15.3906 14.3303 15.3904 14.3298 15.39C14.3288 15.3893 14.327 15.388 14.3244 15.3861C14.3193 15.3822 14.3109 15.3761 14.2997 15.3677C14.2772 15.3509 14.243 15.3252 14.1987 15.2916C14.1102 15.2243 13.9819 15.1257 13.8273 15.0034C13.5162 14.7574 13.1071 14.4222 12.703 14.0577C12.2913 13.6865 11.921 13.3172 11.6655 13.0019C11.5375 12.8439 11.4659 12.7329 11.4324 12.6694C11.3884 12.5858 11.4554 12.6715 11.4554 12.8756H8.45541Z" fill="white" mask="url(#path-2-inside-1_1146_14608)"/>
</svg>
