<svg width="208" height="219" viewBox="0 0 208 219" fill="none" xmlns="http://www.w3.org/2000/svg">
<path d="M131.59 83.3821L104.29 119.917L117.649 127.879L131.59 83.3821Z" fill="#00B6AA"/>
<path d="M164.685 147.007L159.013 218.856H122.5L130.702 185.862L118.6 185.774L104.751 219H70.61L105.018 145.278" fill="#171766"/>
<path d="M131.59 83.3822L104.29 149.2C104.29 149.2 150.547 165.701 176.472 151.992L167.613 84.6078L131.59 83.3822Z" fill="#171766"/>
<path d="M161.08 67.4326L145.025 69.4111L144.102 79.8502C149.227 78.8173 154.362 77.8237 159.522 76.9133L161.08 67.4326Z" fill="#171766"/>
<path d="M162.091 84.2405L160.848 97.2139L148.899 109.688L146.951 111.724L146.421 110.389L140.95 96.6274L141.379 82.6997H156.926L162.091 84.2405Z" fill="white"/>
<path d="M144.107 79.8504L143.652 84.9978L150.471 92.1236L158.113 85.5668L159.531 76.9178C154.362 77.8238 149.228 78.8174 144.107 79.8504Z" fill="#F2583E"/>
<path d="M170.515 57.8C172.208 47.5174 165.244 37.8097 154.961 36.1173C144.678 34.4249 134.971 41.3886 133.278 51.6713C131.586 61.9539 138.55 71.6616 148.832 73.354C159.115 75.0464 168.823 68.0827 170.515 57.8Z" fill="#F2583E"/>
<path d="M160.11 64.6594C160.489 62.3283 158.907 60.131 156.576 59.7514C154.245 59.3719 152.048 60.9539 151.668 63.285C151.289 65.616 152.871 67.8134 155.202 68.193C157.533 68.5725 159.73 66.9905 160.11 64.6594Z" fill="#F6EF97"/>
<path d="M146.757 36.7583C144.902 36.8984 143.041 37.0384 141.181 37.1785C140.682 37.2179 140.17 37.2573 139.719 37.4718C139.268 37.6862 138.883 38.1239 138.879 38.6229C138.874 39.1657 139.29 39.6121 139.723 39.936C141.015 40.9077 142.709 41.3367 144.306 41.0916C143.689 41.9363 142.354 42.4528 142.464 43.4945C142.547 44.2912 143.47 44.6895 144.262 44.8076C145.641 45.0134 147.068 44.8645 148.372 44.3743C148.158 45.1884 147.957 46.0989 148.368 46.8298C148.775 47.5608 149.668 47.8759 150.504 47.981C153.686 48.3793 156.693 46.6241 159.451 44.9871C159.801 44.777 160.274 44.5757 160.584 44.8383C160.764 44.9871 160.812 45.2322 160.847 45.4642C161.346 48.7382 160.584 52.0647 160.606 55.3738C160.615 57.0195 160.895 58.8141 162.108 59.9259C163.014 60.7575 164.292 61.0551 165.517 61.169C166.765 61.2828 168.082 61.2259 169.172 60.6087C169.886 60.206 170.455 59.5845 170.94 58.9235C172.538 56.7438 173.322 53.89 172.647 51.2725C172.424 50.4102 172.039 49.5655 171.404 48.9396" fill="#00B6AA"/>
<path d="M168.749 69.4107C172.662 69.4107 175.835 66.238 175.835 62.3243C175.835 58.4106 172.662 55.2379 168.749 55.2379C164.835 55.2379 161.662 58.4106 161.662 62.3243C161.662 66.238 164.835 69.4107 168.749 69.4107Z" fill="#F2583E"/>
<path d="M174.971 36.6577L173.886 41.0435L172.056 48.41L146.713 36.6577L150.263 32.5783L154.947 27.1902C154.947 27.1902 167.71 28.1181 174.971 36.6577Z" fill="#171766"/>
<path d="M173.886 41.0434L172.056 48.4099L146.713 36.6576L150.263 32.5782L173.886 41.0434Z" fill="#00B6AA"/>
<path d="M140.657 31.6767L181.53 50.8744C181.53 50.8744 177.989 58.1665 154.944 45.6176C139.13 37.008 140.657 31.6767 140.657 31.6767Z" fill="#171766"/>
<path d="M135.833 46.9612C135.833 46.9612 133.6 51.8678 137.036 52.9796C140.472 54.0913 143.256 49.7931 143.256 49.7931C143.256 49.7931 139.107 52.9883 136.953 51.1675C135.36 49.8237 135.833 46.9612 135.833 46.9612Z" fill="#171766"/>
<path d="M149.051 52.6776C149.051 52.6776 146.819 57.5842 150.255 58.696C153.691 59.8078 156.475 55.5095 156.475 55.5095C156.475 55.5095 152.325 58.7047 150.172 56.8839C148.574 55.5402 149.051 52.6776 149.051 52.6776Z" fill="#171766"/>
<path d="M147.125 47.6177L138.879 55.1419L143.002 58.2452L147.961 48.41L147.125 47.6177Z" fill="#FFB459"/>
<path d="M165.163 65.174L164.681 60.2192L172.446 57.5886V58.8798L165.999 60.9327L167.312 65.6511L165.163 65.174Z" fill="#171766"/>
<path d="M150.467 92.1188L146.156 95.9705L140.155 81.9991L144.103 79.85L150.467 92.1188Z" fill="#00B6AA"/>
<path d="M153.322 97.2136L150.468 92.1187L158.872 80.8873L163.262 84.3188L153.322 97.2136Z" fill="#00B6AA"/>
<path d="M151.519 92.1188L148.897 109.688L146.949 111.723L146.42 110.388L149.737 92.1188H151.519Z" fill="#00B6AA"/>
<path d="M139.344 67.1783C139.344 67.1783 130.305 68.1981 126.239 71.9886C124.663 73.4637 123.634 79.3114 122.483 87.8729C122.479 87.886 122.479 87.8991 122.475 87.9123C120.658 101.393 118.513 121.572 113.375 141.99C104.958 175.409 84.0574 187.367 84.0574 187.367C69.6176 186.671 58.9552 183.309 51.1335 178.398C30.2201 165.272 29.6292 141.084 31.5244 127.257C28.7231 121.471 29.6948 113.071 29.9356 113.006C41.8104 109.894 53.926 115.873 63.0171 122.57C66.1992 124.916 69.0136 127.349 71.3115 129.507C74.9576 132.934 77.3256 135.674 77.8552 136.291V136.296C77.9296 136.383 77.9646 136.427 77.9646 136.427L70.8607 143.619L74.1916 151.108C74.1916 151.108 115.287 72.3826 122.488 66.7012C133.588 62.3242 137.208 63.2827 137.208 63.2827L139.344 67.1783Z" fill="#F6EF97"/>
<path d="M110.544 94.9103C112.295 93.1599 112.295 90.3221 110.544 88.5717C108.794 86.8214 105.956 86.8214 104.206 88.5717C102.455 90.3221 102.455 93.1599 104.206 94.9103C105.956 96.6606 108.794 96.6606 110.544 94.9103Z" fill="#FFB459"/>
<path d="M116.625 85.3289C118.375 83.5786 118.375 80.7407 116.625 78.9904C114.875 77.2401 112.037 77.24 110.286 78.9904C108.536 80.7407 108.536 83.5786 110.286 85.3289C112.037 87.0793 114.875 87.0793 116.625 85.3289Z" fill="#FFB459"/>
<path d="M105.757 102.812C106.323 100.402 104.828 97.99 102.419 97.4239C100.009 96.8578 97.5964 98.3524 97.0303 100.762C96.4642 103.172 97.9587 105.584 100.369 106.15C102.778 106.717 105.191 105.222 105.757 102.812Z" fill="#FFB459"/>
<path d="M99.783 112.882C100.354 110.474 98.865 108.058 96.4564 107.487C94.0479 106.915 91.6322 108.405 91.0609 110.813C90.4896 113.222 91.9789 115.638 94.3875 116.209C96.796 116.78 99.2117 115.291 99.783 112.882Z" fill="#FFB459"/>
<path d="M93.812 122.933C94.3834 120.524 92.894 118.109 90.4854 117.537C88.0769 116.966 85.6613 118.455 85.0899 120.864C84.5186 123.273 86.008 125.688 88.4165 126.26C90.8251 126.831 93.2407 125.341 93.812 122.933Z" fill="#FFB459"/>
<path d="M87.8322 132.964C88.3984 130.554 86.9038 128.142 84.494 127.576C82.0842 127.01 79.6718 128.504 79.1056 130.914C78.5395 133.324 80.0341 135.736 82.4439 136.302C84.8537 136.869 87.2661 135.374 87.8322 132.964Z" fill="#FFB459"/>
<path d="M114.686 73.6387L126.385 78.5322L128.924 76.0855L116.467 70.9031" fill="#F2583E"/>
<path d="M122.473 87.9124C120.657 101.394 118.512 121.572 113.373 141.99C104.956 175.409 84.0559 187.367 84.0559 187.367C84.0559 187.367 72.0453 183.651 67.3094 178.399L82.8128 180.915C82.8128 180.915 118 115.059 122.473 87.9124Z" fill="#FFB459"/>
<path d="M63.0188 122.569C58.8037 127.756 55.1796 133.411 52.5534 139.548C48.9905 147.873 48.2858 158.168 48.8767 167.202C49.1261 171.01 49.8965 174.787 51.1396 178.398C30.2262 165.272 29.6353 141.084 31.5305 127.257C28.7248 121.471 29.7009 113.071 29.9373 113.006C41.8165 109.894 53.9277 115.873 63.0188 122.569Z" fill="#FFB459"/>
<path d="M77.8566 136.291L70.8621 143.619C37.0277 145.413 33.3904 119.803 33.3904 119.803L54.7021 121.65L71.3085 129.507C74.959 132.934 77.3269 135.674 77.8566 136.291Z" fill="#FFB459"/>
<path d="M77.9622 136.427C42.3332 147.199 29.9331 113.006 29.9331 113.006C53.4903 106.83 77.9622 136.427 77.9622 136.427Z" fill="#171766"/>
<path d="M135.766 59.6936L138.292 69.4938L140.572 68.614L139.049 59.6936H135.766Z" fill="#171766"/>
<path d="M141.321 60.4202L137.583 61.9478L138.808 65.8652L142.98 66.6356L141.321 60.4202Z" fill="#171766"/>
<path d="M44.4514 76.6242C31.1759 95.9312 46.7362 115.978 57.8363 133.026C56.2387 132.865 54.6455 132.571 53.2536 132.05C47.9574 130.085 21.9579 107.977 26.0723 87.2559C27.5561 79.7581 31.2415 72.9343 33.9115 65.7735C36.5815 58.6083 37.7633 50.0775 33.5482 43.7002C32.0206 41.3847 29.8978 39.542 27.845 37.6818C22.4875 32.8364 17.327 27.549 14.1361 21.071C10.9453 14.5886 9.95607 6.68809 13.0375 0.153196L26.3874 0H52.5489C49.3537 6.27227 49.1873 13.862 53.6431 21.036C58.4579 28.0392 64.148 33.7293 63.2726 42.4834C61.9595 56.0521 51.8923 65.2439 44.4514 76.6242Z" fill="#00B6AA"/>
<path d="M121.05 29.3523C108.795 33.7293 91.2865 34.6047 89.9734 50.362C89.098 60.8669 89.9734 73.1225 79.9063 79.2504C72.0276 83.6274 62.8359 86.2536 58.8966 94.5699C53.8192 106.624 55.6488 121.436 62.2012 133.18C60.8619 133.21 59.3474 133.18 57.8373 133.026C46.7372 115.978 31.1769 95.9312 44.4524 76.6242C51.8933 65.2439 61.9605 56.0521 63.2736 42.4834C64.149 33.7293 58.4589 28.0392 53.6441 21.036C49.1883 13.862 49.3547 6.27227 52.5499 0H137.604C138.305 12.1856 132.641 25.1372 121.05 29.3523Z" fill="#7BD6AA"/>
<path d="M189.835 0C187.73 6.62243 185.292 13.1923 181.431 18.9569C177.203 25.2642 171.045 30.5866 163.656 32.3549C159.122 33.4404 154.386 33.1516 149.737 33.5192C145.089 33.8869 140.204 35.0731 136.974 38.4346C133.341 42.2076 132.501 47.959 129.13 51.964C122.079 60.3591 107.714 57.6454 99.4236 64.8193C90.6083 72.4441 91.8907 88.4071 81.8367 94.3117C77.893 96.6271 60.7176 100.575 60.3236 112.021C59.9997 121.484 66.806 132.838 66.806 132.838C66.806 132.838 64.8364 133.118 62.2014 133.18C55.649 121.436 53.8194 106.624 58.8967 94.5699C62.8361 86.2536 72.0278 83.6274 79.9064 79.2504C89.9736 73.1225 89.0982 60.8669 89.9736 50.362C91.2867 34.6047 108.795 33.7293 121.05 29.3523C132.641 25.1372 138.305 12.1856 137.604 0H189.835Z" fill="#00B6AA"/>
<path d="M192.368 143.706C190.709 153.143 183.137 162.086 171.976 168.135C158.739 175.309 140.457 178.412 121.018 173.444C117.455 172.534 113.853 171.352 110.238 169.872L124.739 130.055C127.47 130.641 130.35 131.21 133.261 131.705C146.549 133.968 160.56 134.716 164.688 129.061C173.166 117.453 164.688 95.975 164.688 95.975C164.688 95.975 160.783 91.1909 167.616 84.6079C167.616 84.6079 189.908 109.561 192.591 133.333C192.99 136.843 192.963 140.332 192.368 143.706Z" fill="#00B6AA"/>
<path d="M117.004 127.468L114.685 112.157L111.861 110.918L109.787 120.74L96.8614 110.516L94.6991 113.615L101.4 122.959L90.9437 119.659L88.5057 124.723L100.726 131.945L84.4613 131.709L83.4721 135.683L118.751 149.821L125.82 135.683L117.004 127.468Z" fill="#F1573D"/>
<path d="M84.4627 135.158L84.966 131.945C84.966 131.945 87.9599 132.847 87.6623 134.471C87.369 136.095 84.4627 135.158 84.4627 135.158Z" fill="#171766"/>
<path d="M90.2614 123.944L91.697 120.797C91.697 120.797 95.3387 123.012 94.8922 124.535C94.4545 126.058 90.2614 123.944 90.2614 123.944Z" fill="#171766"/>
<path d="M95.8799 113.763L97.355 111.846C97.355 111.846 100.997 114.647 99.7142 115.904C98.4405 117.155 95.8799 113.763 95.8799 113.763Z" fill="#171766"/>
<path d="M112.403 112.385L114.762 113.124C114.762 113.124 115.353 117.501 114.075 117.208C112.797 116.91 112.403 112.385 112.403 112.385Z" fill="#171766"/>
<path d="M135.127 125.34L133.263 131.705L121.02 173.444L118.827 180.915L108.44 174.805L110.239 169.872L124.741 130.054L127.327 122.959L135.127 125.34Z" fill="white"/>
<path d="M192.371 143.706C190.712 153.143 183.14 162.085 171.978 168.134C169.575 162.812 169.12 156.605 170.862 151.02C173.449 142.713 180.737 136.2 189.136 133.928C190.244 133.626 191.421 133.412 192.594 133.333C192.992 136.843 192.966 140.332 192.371 143.706Z" fill="#FFB459"/>
<path d="M95.4245 103.779L84.9678 96.9772L98.8517 71.9188L108.437 73.6389L95.4245 103.779Z" fill="white"/>
<path d="M98.2208 76.6504L113.584 74.7202L115.545 77.1013L106.66 81.7672L120.01 91.4273L117.615 94.3511L106.804 90.438L112.818 99.6079L108.612 103.328L98.339 93.5282L102.987 109.119L99.4288 111.15L88.5738 97.0561" fill="#F1573D"/>
<path d="M99.6675 110.056L102.622 108.694C102.622 108.694 100.941 106.059 99.4618 106.786C97.978 107.513 99.6675 110.056 99.6675 110.056Z" fill="#171766"/>
<path d="M108.884 101.429L111.524 99.1921C111.524 99.1921 108.403 96.2901 107.059 97.1305C105.711 97.9709 108.884 101.429 108.884 101.429Z" fill="#171766"/>
<path d="M117.155 93.2524L118.599 91.309C118.599 91.309 114.914 88.569 114.051 90.1404C113.194 91.7161 117.155 93.2524 117.155 93.2524Z" fill="#171766"/>
<path d="M113.989 76.9743L112.636 74.904C112.636 74.904 108.264 75.5255 108.894 76.6767C109.529 77.8278 113.989 76.9743 113.989 76.9743Z" fill="#171766"/>
<path d="M5.17364 169.697L19.7885 177.313L30.2233 155.625L25.5706 192.318L15.1357 185.818L0 211.852L5.17364 169.697Z" fill="#FFB459"/>
<path d="M41.6363 177.545L47.3965 200.849L33.9503 204.079L43.7198 215.849V205.694L58.3216 204.77L41.6363 177.545Z" fill="#F6EF97"/>
<path d="M77.0665 119.917L94.6359 107.342L90.7316 101.919L77.0665 119.917Z" fill="#00B6AA"/>
<path d="M69.2162 115.903L78.421 86.7744L72.1138 87.9124L69.2162 115.903Z" fill="#F1573D"/>
<path d="M25.572 110.918L4.70238 98.7852L10.8915 89.9261L25.572 110.918Z" fill="#00B6AA"/>
<path d="M19.8632 87.9125L6.04927 57.5885L18.0642 51.1892L19.8632 87.9125Z" fill="#F6EF97"/>
<path d="M20.9138 115.904L2.14955 124.308L5.44982 130.015L20.9138 115.904Z" fill="#F1573D"/>
<path d="M184.635 63.9701L192.86 75.276L206.214 60.4203L196.624 89.9259L183.948 75.1753L169.81 82.161L184.635 63.9701Z" fill="#FFB459"/>
<path d="M178.127 89.9261C178.127 89.9261 200.392 111.308 200.734 109.5C201.075 107.692 206.214 101.919 206.214 101.919L178.127 89.9261Z" fill="#171766"/>
<path d="M188.013 59.6938L207.928 37.7999L201.42 32.5781L188.013 59.6938Z" fill="#171766"/>
<path d="M168.573 175.869L197.969 208.766L207.927 195.408L168.573 175.869Z" fill="#FFB459"/>
<path d="M176.478 173.829L203.817 178.399V170.06L176.478 173.829Z" fill="#F6EF97"/>
<path d="M166.142 185.818L168.763 211.852L183.61 208.766L166.142 185.818Z" fill="#F6EF97"/>
<path d="M16.7207 151.253C16.7207 152.785 15.4776 154.028 13.9456 154.028C12.4137 154.028 11.1706 152.785 11.1706 151.253C11.1706 149.721 12.4137 148.478 13.9456 148.478C15.4776 148.482 16.7207 149.721 16.7207 151.253Z" fill="#7BD6AA"/>
<path d="M194.263 162.326C196.115 162.326 197.616 160.825 197.616 158.974C197.616 157.122 196.115 155.621 194.263 155.621C192.411 155.621 190.91 157.122 190.91 158.974C190.91 160.825 192.411 162.326 194.263 162.326Z" fill="#171766"/>
<path d="M194.261 120.39C196.533 120.39 198.376 118.548 198.376 116.276C198.376 114.004 196.533 112.161 194.261 112.161C191.989 112.161 190.147 114.004 190.147 116.276C190.147 118.548 191.989 120.39 194.261 120.39Z" fill="#7BD6AA"/>
<path d="M186.874 29.3042C188.68 29.3042 190.143 27.8403 190.143 26.0345C190.143 24.2288 188.68 22.7649 186.874 22.7649C185.068 22.7649 183.604 24.2288 183.604 26.0345C183.604 27.8403 185.068 29.3042 186.874 29.3042Z" fill="#FFB459"/>
<path d="M15.0125 37.2639C15.5891 34.8219 14.0769 32.3749 11.6349 31.7983C9.19297 31.2217 6.74592 32.7338 6.1693 35.1758C5.59268 37.6178 7.10485 40.0648 9.54683 40.6414C11.9888 41.2181 14.4359 39.7059 15.0125 37.2639Z" fill="#FFB459"/>
<path d="M101.442 67.4324C103.378 67.4324 104.948 65.8627 104.948 63.9264C104.948 61.9901 103.378 60.4204 101.442 60.4204C99.5052 60.4204 97.9355 61.9901 97.9355 63.9264C97.9355 65.8627 99.5052 67.4324 101.442 67.4324Z" fill="#FFB459"/>
<path d="M22.3313 134.661C23.3806 132.178 22.2186 129.315 19.7359 128.265C17.2532 127.216 14.39 128.378 13.3407 130.861C12.2914 133.344 13.4534 136.207 15.9361 137.256C18.4188 138.305 21.282 137.143 22.3313 134.661Z" fill="#171766"/>
<path d="M67.7315 198.096C69.327 198.096 70.6204 196.802 70.6204 195.207C70.6204 193.611 69.327 192.318 67.7315 192.318C66.1361 192.318 64.8427 193.611 64.8427 195.207C64.8427 196.802 66.1361 198.096 67.7315 198.096Z" fill="#FFB459"/>
<path d="M26.1486 204.656C28.0439 204.656 29.5802 203.12 29.5802 201.225C29.5802 199.33 28.0439 197.793 26.1486 197.793C24.2534 197.793 22.7171 199.33 22.7171 201.225C22.7171 203.12 24.2534 204.656 26.1486 204.656Z" fill="#7BD6AA"/>
</svg>
