<svg width="217" height="433" viewBox="0 0 217 433" fill="none" xmlns="http://www.w3.org/2000/svg">
<path fill-rule="evenodd" clip-rule="evenodd" d="M69.3449 153.088L69.1584 155.309L69.0192 155.049C68.9994 159.53 68.3343 164.06 67.6007 168.531C65.6833 166.957 64.1071 165.569 64.5623 162.882C65.7153 159.053 67.1941 155.318 68.3896 151.51L68.59 152.508L69.3792 152.667L69.3449 153.088ZM206.285 389.144C205.932 387.587 205.547 385.939 205.186 384.378C205.15 384.246 204.82 384.216 204.713 384.18C202.805 379.515 201.134 378.451 197.437 377.817C191.476 376.74 185.594 374.407 179.962 370.948C180.094 370.433 180.453 369.545 180.78 368.595C180.737 368.61 180.694 368.623 180.65 368.631C180.574 368.646 180.503 368.649 180.435 368.645C180.053 369.54 179.638 370.326 179.418 370.616C178.715 370.163 177.932 369.665 177.243 369.184L177.245 369.175C176.632 368.751 175.874 368.227 175.273 367.9C175.161 367.279 174.25 367.087 173.774 366.677C172.85 366.018 172.337 365.678 171.49 366.52C169.662 364.15 168.19 361.644 166.742 358.405C165.837 356.511 165.392 354.415 164.174 352.724C164.197 352.711 164.971 352.47 164.99 352.448C151.151 321.845 148.934 287.792 145.982 255.08C145.331 247.765 144.65 240.382 143.381 233.281C143.206 232.206 143.05 231.147 142.402 230.29C150.179 223.893 150.255 211.495 146.488 202.298C155.149 178.976 138.172 154.205 139.424 130.403C140.127 114.258 137.215 95.5504 118.945 91.6765C116.679 90.3748 113.963 90.1804 111.801 90.1453C109.854 89.1638 109.547 86.9967 108.854 85.2152L108.177 85.2194C107.979 84.4131 107.782 83.5291 107.611 82.7168C107.354 82.2017 107.506 81.5304 106.697 81.6732C104.862 79.0218 90.1797 77.6888 90.013 81.958C89.483 82.27 89.3783 82.8789 89.2549 83.6183C88.4407 88.8617 82.8313 93.0431 77.777 92.1999L77.6952 92.1261C56.1778 91.3301 47.7071 106.61 43.5024 127.435C40.2172 143.615 38.129 161.15 40.7017 177.357C43.2152 184.702 50.8284 188.236 56.7183 192.761C56.0393 194.469 55.9759 196.353 55.9552 198.201C55.8776 200.334 55.7221 202.485 55.5331 204.59C55.1458 207.257 54.5187 211.849 58.1564 212.16C59.5656 244.042 62.509 275.84 58.0114 307.814C54.2776 325.497 55.707 346.893 60.3235 364.195C60.5898 365.05 61.2739 365.819 62.1477 365.545C62.5915 365.832 62.9381 366.011 63.305 365.741C63.5212 366.141 63.7581 366.525 64.0143 366.897C64.1112 371.65 64.6511 376.314 64.4053 381.098C64.0388 381.056 63.2326 380.653 62.9194 380.916L62.8746 381.281L62.5763 381.383C61.9521 383.141 61.5604 384.986 61.2706 386.475C60.0075 389.027 58.3937 393.543 59.2936 396.385C59.25 396.436 59.0077 396.717 58.9696 396.76C58.7545 396.883 58.7148 397.047 58.6624 397.235C58.0493 397.465 57.9864 398.164 57.9233 398.879C57.6162 400.612 58.0724 402.187 58.2292 403.882L58.2384 403.871C58.2384 403.871 58.7531 404.466 58.7539 404.467C65.2225 404.86 71.5922 404.961 78.032 405.192C78.518 404.263 78.6643 403.007 79.0295 401.986C86.6642 407.562 99.892 405.429 109.482 404.059C113.376 403.499 117.056 402.969 120.318 402.793C120.53 402.764 120.545 402.672 120.551 402.588C120.583 401.312 120.823 400.004 120.703 398.765C121.377 398.112 121.07 396.922 120.607 395.876C118.905 392.196 114.278 391.794 110.53 391.166C103.478 389.799 97.807 387.23 93.2198 383.301C93.5284 383.023 93.8085 382.749 94.0638 382.481C93.9641 382.415 93.8644 382.349 93.765 382.282C93.5236 382.176 93.2928 382.068 93.0811 381.931C92.9732 381.992 92.8381 382.004 92.7047 381.929C92.2436 381.671 91.8679 381.291 91.4299 381.001C91.3431 381.125 91.2558 381.252 91.168 381.385C90.748 380.943 90.2725 380.443 89.8571 379.979C89.8422 379.851 89.876 379.532 89.7195 379.497C88.5385 379.616 87.1706 380.014 85.9351 380.455C84.5387 375.874 83.7299 370.917 83.8232 366.236C85.1964 366.236 86.3992 366.223 87.4232 365.571C87.703 365.646 88.093 365.808 88.1654 365.369C88.5809 363.576 88.6889 361.678 88.7935 359.843C90.9189 325.121 94.1574 297.22 104.899 267.807C105.93 271.891 107.662 276.138 109.238 280.204C116.408 297.195 121.573 315.518 126.001 333.352C127.743 340.027 129.637 347.363 131.507 353.969C132.232 357.144 133.707 358.307 136.797 358.282C139.178 358.393 141.567 358.359 143.958 358.191C147.217 361.157 148.553 365.161 149.505 368.766C148.712 369.355 147.453 369.132 146.525 369.327C145.726 370.614 146.002 372.413 146.021 374C146.147 376.062 146.04 378.275 146.641 380.222C146.749 382.351 146.762 384.685 146.922 387.161C145.156 388.183 145.479 390.443 146.066 392.605C146.328 393.155 155.824 393.046 158.18 393.023C160.948 392.862 164.895 393.568 165.803 390.539C172.393 394.193 182.419 392.959 190.097 391.883C195.669 391.205 200.717 390.575 206.189 389.425C206.246 389.4 206.325 389.224 206.285 389.144Z" fill="white"/>
<path fill-rule="evenodd" clip-rule="evenodd" d="M89.6824 80.8113C90.1083 80.7256 90.4748 80.852 90.7332 81.085C90.7886 81.6599 90.782 82.2334 90.7345 82.8071C90.687 82.8479 90.6343 82.8875 90.5763 82.9242L90.6204 82.8961C90.6603 82.8703 90.6877 82.8513 90.7055 82.8374C90.1439 86.5762 87.5436 89.7567 84.173 91.4474C83.9644 91.7908 83.4927 91.7675 83.1539 91.9223L82.6777 92.0719C81.3667 92.4823 80.0397 92.8701 78.653 92.896C82.1791 102.784 95.9683 108.156 105.723 108.886C114.147 109.329 118.822 102.354 116.6 94.5315C111.719 93.9011 106.921 88.7182 108.69 83.7101L108.746 83.5584C108.758 83.5072 108.826 83.5255 108.832 83.5702C108.886 84.0807 109.19 84.6426 109.326 85.1413L109.389 85.3184C109.858 86.6687 110.274 88.2789 111.6 88.9975L111.827 89.0027C114.212 89.0648 116.703 89.3793 118.803 90.5581C121.144 91.0174 123.383 91.9435 125.466 93.0909C141.923 102.01 139.289 120.98 139.802 136.779C141.398 158.427 154.611 180.061 146.818 201.795C150.376 210.846 150.651 223.01 142.885 229.915C142.971 230.049 143.043 230.196 143.103 230.346C143.473 231.267 143.587 232.322 143.761 233.3L143.782 233.412C144.202 235.686 144.504 237.982 144.799 240.275C145.382 244.797 145.805 249.339 146.208 253.88L146.266 254.529C147.275 265.944 148.157 277.385 149.48 288.771L149.728 290.459C151.52 302.649 153.471 314.867 156.411 326.812C156.498 327.132 156.584 327.452 156.673 327.772C157.732 331.604 158.979 335.371 160.151 339.168C160.522 340.37 160.933 341.553 161.367 342.727L161.905 344.062C161.995 344.285 162.085 344.507 162.176 344.729C163.131 347.075 164.149 349.395 165.221 351.691C165.414 352.105 165.132 352.486 164.801 352.593C165.779 354.142 166.148 355.987 166.965 357.631C168.134 360.253 169.519 362.804 171.247 365.104C172.203 364.387 173.271 365.313 174.066 365.843C174.576 366.16 175.238 366.398 175.438 366.957C175.823 367.178 176.198 367.421 176.553 367.665L176.588 367.55C177.019 366.174 177.862 364.327 179.231 363.712C180.833 363.04 182.11 364.38 181.631 365.983C181.337 367.416 180.878 368.787 180.389 370.169C185.315 373.138 190.702 375.39 196.369 376.52L196.563 376.558C197.93 376.829 199.319 377.017 200.573 377.665C202.65 378.803 203.991 380.967 204.83 383.13C205.122 383.201 205.389 383.455 205.454 383.734L206.007 386.119C206.191 386.914 206.374 387.71 206.555 388.506C206.654 388.937 206.423 389.481 205.946 389.577C202.656 390.233 199.351 390.808 196.031 391.294C186.608 392.165 174.483 395.227 165.733 390.928C164.336 393.793 160.449 392.974 157.811 393.19C156.208 393.071 144.96 393.682 145.067 392.325L145.005 392.092C144.508 390.196 144.059 387.649 145.871 386.344C145.758 384.205 145.673 382.064 145.638 379.923C145.007 377.892 145.116 375.645 144.988 373.524C145.005 371.943 144.635 370.118 145.501 368.704C145.577 367.767 147.663 368.267 148.354 367.924L148.293 367.702C147.34 364.253 146.016 360.898 143.34 358.373C141.027 358.527 138.708 358.553 136.392 358.445C132.867 358.459 131.259 356.934 130.491 353.624C129.942 351.682 129.405 349.736 128.876 347.787C124.752 332.457 121.007 316.992 116.448 301.781C114.706 296.683 112.778 291.647 110.835 286.624C109.517 283.22 108.198 279.816 106.88 276.412C106.203 274.663 105.535 272.905 104.947 271.124C104.766 270.577 104.602 270.027 104.447 269.474C94.222 297.833 90.9789 327.963 89.1696 357.881C89.0048 360.27 88.9758 362.686 88.4339 365.024C88.2678 365.744 87.6587 365.943 87.1208 365.785C86.1304 366.309 85.3979 366.37 84.1229 366.39L84.1323 366.8C84.2048 369.74 84.3851 372.672 85.0536 375.543C85.3186 376.742 85.7932 377.908 86.0503 379.101C87.0892 378.748 88.1505 378.483 89.2421 378.352C89.7932 378.287 90.1083 378.747 90.1307 379.219C90.3337 379.443 90.5381 379.664 90.7464 379.884L90.8516 379.749C91.8319 378.485 93.0886 376.753 94.7924 376.61C95.5676 376.563 96.2756 377 96.4445 377.787C96.6063 379.595 95.1056 381.575 93.8393 382.774C98.5309 386.648 104.346 388.885 110.281 390.027L110.512 390.065C114.32 390.687 119.016 391.177 120.832 395.108L120.87 395.192C121.296 396.15 121.698 397.602 121.004 398.48C121.086 399.679 120.864 400.913 120.836 402.123C120.805 402.615 120.473 402.901 120.002 402.955C107.887 403.604 89.4207 409.263 79.0445 402.53C78.8309 403.276 78.6108 404.021 78.4064 404.769C78.3168 405.099 77.9832 405.369 77.6339 405.356C71.2108 405.126 64.7666 405.022 58.3514 404.631C58.1647 404.635 58.0086 404.551 57.8787 404.401C57.7282 404.585 57.3437 404.535 57.2923 404.273C57.2017 403.813 57.2011 403.347 57.1597 402.881C57.1117 402.341 56.9673 401.844 56.8827 401.317C56.7265 400.343 56.7967 399.298 56.8935 398.321L56.9182 398.074C56.986 397.428 57.1065 396.695 57.6913 396.329L57.7301 396.305C57.7323 396.304 57.7344 396.303 57.7365 396.302C57.8012 396.096 57.9547 395.919 58.1487 395.778L58.1602 395.764C57.8546 395.036 57.9723 394.115 58.0615 393.357C58.3077 390.717 59.048 388.106 60.2681 385.762C60.6159 383.98 61.0377 382.136 61.6644 380.44C61.6473 380.363 61.7448 380.297 61.82 380.331C61.846 380.317 61.8715 380.307 61.8969 380.299C61.9 380.273 61.9052 380.247 61.9135 380.222C62.0217 379.903 62.3563 379.729 62.6696 379.679C62.9349 379.637 63.1649 379.708 63.4031 379.768C63.5747 375.162 63.0295 370.563 62.9736 365.958C62.5349 366.171 62.0425 365.982 61.6381 365.739C60.4647 365.919 59.6328 364.92 59.311 363.87L59.1224 363.019C57.4309 355.356 55.9067 347.625 55.0872 339.814C53.9545 328.91 55.3228 317.997 56.9851 307.221C61.4971 278.847 58.2288 250.165 57.9071 221.636C57.6381 218.521 57.5269 215.372 57.1846 212.258C55.9121 212.107 54.9501 210.919 54.5202 209.78C53.8465 207.975 54.333 205.892 54.503 204.037C54.6916 201.98 54.83 199.92 54.9198 197.858L54.9303 197.256C54.961 195.648 55.0309 194.03 55.5656 192.499C49.863 188.118 42.3007 184.677 39.8876 177.353C38.7896 176.366 39.0107 171.792 38.8316 170.114C38.0991 155.599 39.3402 140.988 42.485 126.8C46.4209 107.464 54.4839 90.138 77.0841 90.9658C77.067 90.9528 77.0485 90.9382 77.0314 90.9237C77.27 90.8448 77.5165 90.9224 77.6919 91.0803C81.5401 91.5734 85.2182 89.3046 87.1406 86.0437C87.6126 85.2306 87.9633 84.382 88.1505 83.4597L88.1651 83.386C88.3608 82.3717 88.4161 81.0655 89.6824 80.8113ZM60.4858 396.575C59.9396 396.876 59.342 396.912 58.8392 397.314C58.4859 399.243 58.5149 401.244 58.9394 403.159C64.9643 403.223 70.9972 403.527 77.0195 403.734C77.2621 402.803 77.4915 401.868 77.7446 400.94L77.7506 400.921L77.7639 400.885C78.3889 400.906 79.0141 400.924 79.6394 400.939C88.8883 407.555 108.05 401.933 119.215 401.381L119.33 399.527C119.217 399.606 119.105 399.649 118.998 399.665C119.101 399.394 118.917 399.042 118.549 399.144C117.955 399.31 117.358 399.463 116.758 399.606C116.713 399.589 116.661 399.58 116.604 399.585C111.362 400.031 106.1 399.99 100.844 400.006C95.6068 400.021 90.375 400.241 85.1371 400.227C83.0007 400.221 80.8644 400.189 78.7289 400.126C72.5781 398.986 66.471 397.64 60.4858 396.575ZM204.056 385.272C203.797 385.459 203.458 385.475 203.098 385.524L203.046 385.531C202.717 385.579 202.387 385.624 202.056 385.649C201.238 386.177 199.607 386.106 198.818 386.256C181.492 387.984 164.045 385.933 146.701 387.321C145.873 388.5 146.075 389.959 146.515 391.276C151.358 391.458 156.206 391.556 161.052 391.347L161.439 391.333C162.037 391.31 162.651 391.267 163.205 391.041C163.699 390.84 164.306 390.34 164.229 389.742L164.224 389.708C164.105 389.021 164.828 388.217 165.53 388.706C172.157 393.093 181.162 390.887 188.628 390.455C194.008 389.887 199.36 389.078 204.67 388.053C204.464 387.126 204.26 386.199 204.056 385.272ZM83.0234 365.835C82.4677 365.898 81.9114 365.955 81.3542 366.006C79.1197 366.207 76.8774 366.308 74.6351 366.372L73.5883 366.401C71.4988 366.457 69.3959 366.507 67.3104 366.393C66.2557 366.336 65.1741 366.212 64.1543 365.926C65.0515 370.623 65.5129 375.406 65.4985 380.185C65.7787 380.427 65.722 380.827 65.6475 381.133L65.7178 381.34C65.8813 381.826 66.0374 382.321 66.0997 382.818C72.5739 386.661 77.9487 382.725 83.8516 379.97C82.8788 377.444 82.5828 374.675 82.4199 371.994C82.329 369.908 82.4852 367.872 83.0234 365.835ZM94.7917 378.238C94.522 378.269 94.2717 378.437 94.0534 378.586C93.153 379.23 92.3751 379.992 91.6645 380.815C91.9374 381.084 92.2156 381.348 92.4991 381.607C93.5626 380.752 94.3979 379.561 94.7917 378.238ZM163.603 353.818L162.726 354.113C157.315 355.925 151.792 357.626 146.044 358.134C146.352 358.439 146.612 358.801 146.84 359.185C147.039 359.354 147.239 359.569 147.183 359.825C147.367 360.197 147.531 360.575 147.686 360.931C148.596 363.089 149.645 365.213 150.411 367.435C150.634 368.362 151.508 369.659 151.101 370.557C157.212 373.213 164.813 372.03 169.482 367.171L169.317 366.929C166.634 362.963 164.277 358.606 163.603 353.818ZM180.177 365.03C179.807 364.711 179.157 365.59 178.992 365.809C178.383 366.618 177.964 367.503 177.652 368.429C178.044 368.697 178.438 368.949 178.836 369.206L178.858 369.169C179.229 368.531 180.561 365.435 180.177 365.03ZM63.9637 364.961L63.9702 364.994C64.2982 365.045 64.6269 365.09 64.957 365.128C65.7588 365.219 66.5712 365.259 67.3806 365.276C66.2415 365.112 65.1016 364.979 63.9637 364.961ZM72.6487 210.559L72.3791 210.532L72.0326 210.49C67.5855 209.938 63.104 209.201 58.6258 209.918C59.246 212.781 59.2874 215.781 59.4878 218.715C60.4436 246.967 63.8854 275.381 60.0291 303.567L59.91 304.421C58.5044 314.446 56.8319 324.505 57.5052 334.663C58.0303 343.921 59.9182 353.023 61.7939 362.084C62.2447 362.197 62.6956 362.31 63.1478 362.42C63.161 362.295 63.2393 362.367 63.2546 362.447C68.8098 363.927 74.6076 364.054 80.3157 363.682C81.392 363.621 82.4634 363.533 83.5391 363.46C84.3681 363.1 85.2543 362.871 86.1534 362.713C88.0494 333.961 90.5321 304.882 99.4436 277.316C105.117 259.805 112.203 242.752 116.396 224.792C116.541 224.288 117.305 224.5 117.181 225.009L117.05 225.698C115.986 231.322 115.026 236.965 113.369 242.463C114.627 241.095 116.062 239.887 117.25 238.455C117.62 238.004 117.96 237.529 118.253 237.023C118.531 236.395 118.976 235.904 119.666 235.757C119.983 235.629 120.277 235.898 120.381 236.162C120.671 236.892 120.549 237.413 120.126 238.056L120.02 238.214C118.156 240.964 115.173 242.57 112.711 244.729C110.65 251.596 108.277 258.366 105.951 265.146C105.922 266.495 106.168 267.827 106.563 269.113C107.013 270.435 107.417 271.836 108.108 273.076C117.725 293.138 122.571 314.998 128.414 336.346C129.952 342.039 131.509 347.73 133.186 353.384L133.211 353.487C133.593 355.081 134.189 355.722 135.939 355.719C144.709 356.122 153.714 354.693 161.704 351.172C157.303 339.451 154.247 327.321 151.871 315.027C150.672 309.216 149.701 303.359 148.883 297.479C147.744 289.972 146.739 282.448 145.72 274.961C143.637 260.288 143.728 245.358 141.073 230.774C140.166 230.804 139.389 229.729 139.94 228.926C139.748 228.127 139.92 227.254 140.205 226.517L140.171 226.356C137.06 229.114 133 229.463 135.084 224.162L135.227 223.802C136.792 219.912 138.783 215.756 137.899 211.49C128.875 216.297 117.845 215.522 108.146 213.415C108.902 216.156 106.867 217.837 104.571 215.996C104.157 215.662 103.751 215.316 103.353 214.958C103.937 217.268 103.623 219.689 103.084 221.979L103.033 222.243C102.77 223.616 102.472 225.44 101.425 226.39C100.662 227.082 99.5124 226.788 99.1695 225.8C98.9781 222.531 98.065 219.316 96.3932 216.474C96.6727 218.551 96.6041 220.686 96.0913 222.678C95.8935 223.439 95.6193 224.217 95.5546 225.005L95.5645 225.134C95.6629 226.523 95.478 227.798 93.743 227.826C89.629 227.102 92.2244 217.385 89.6049 214.312C88.809 218.021 89.7362 222.896 86.1191 225.358C85.1198 225.981 83.9003 225.62 83.6971 224.409L83.7691 223.458C84.2007 217.653 84.1201 215.913 80.3908 210.472C77.8619 211.076 75.2137 210.818 72.6487 210.559ZM145.936 359.74C145.938 359.763 145.94 359.784 145.941 359.806C145.984 359.85 146.027 359.894 146.07 359.939L146.133 360.007L146.06 359.826C146.019 359.8 145.976 359.769 145.936 359.74ZM142.54 230.215L142.371 230.358C142.342 230.381 142.314 230.405 142.285 230.428C142.435 231.098 142.576 231.769 142.712 232.441L142.686 231.998C142.661 231.563 142.73 230.773 142.54 230.215ZM139.793 170.714C138.521 164.803 137.253 162.309 138.864 170.822L139.039 171.742C139.737 175.428 140.472 179.607 141.163 184.106L141.307 185.048C142.028 189.712 143.161 196.541 143.245 202.011C143.34 208.218 140.183 210.06 138.936 210.864C138.702 211.546 138.998 212.116 139.195 212.772C139.46 213.824 139.529 214.836 139.453 215.917C139.191 219.607 137.216 222.94 136.319 226.442C137.469 226.127 138.752 225.092 139.757 224.272C141.541 222.855 142.786 220.756 143.324 218.529C143.58 217.478 143.394 216.179 144.111 215.317C144.322 215.064 144.779 215.089 144.993 215.317C145.579 215.94 145.523 216.703 145.429 217.499C145.11 220.207 143.916 222.862 141.994 224.812C141.904 225.812 141.605 226.704 141.406 227.655C141.483 227.868 141.559 228.081 141.632 228.296C142.934 227.173 144.022 225.815 144.866 224.32C148.63 217.721 147.315 210.123 146.341 202.927C146.145 203.409 145.7 203.601 145.266 203.554C145.017 204.176 144.366 203.779 144.341 202.975C144.179 197.961 143.512 190.833 142.284 183.531C141.553 179.181 140.666 174.77 139.793 170.714ZM92.2611 193.481C90.3941 199.264 83.0364 200.392 78.7386 203.919C80.8972 209.604 86.9393 215.691 85.1617 223.024L85.1517 223.079C85.0983 223.36 84.923 224.152 85.1116 224.301C85.2315 224.396 85.9698 223.676 86.0991 223.534C88.6845 220.463 87.1803 216.12 88.6342 212.619C88.8254 212.153 89.4213 211.878 89.8247 212.306C91.643 214.228 92.0824 216.821 92.361 219.354L92.3705 219.441C92.5945 221.411 92.4715 223.441 93.0561 225.356L93.0781 225.424C93.2023 225.794 93.4348 226.316 93.6941 226.41C94.41 226.669 94.1411 225.525 94.1661 225.072C94.2413 223.764 94.7976 222.54 94.9927 221.251C95.4093 218.488 94.9941 215.59 94.0752 212.97C93.7838 212.139 94.9308 211.844 95.3737 212.424C97.2129 214.835 98.6868 217.514 99.6584 220.388C100.05 221.547 100.258 222.721 100.519 223.902C102.148 218.968 102.101 213.78 98.4126 209.735C97.5398 208.689 98.994 207.181 99.934 208.218C100.909 209.377 101.863 210.55 102.923 211.635C103.968 212.686 104.975 213.98 106.267 214.731C106.058 210.007 100.981 207.873 98.2727 204.639C95.5123 201.382 94.0028 197.32 92.2611 193.481ZM67.8615 153.594C66.873 156.595 65.715 159.542 64.8215 162.575C64.6359 164.627 65.269 165.478 66.7791 166.781C67.4327 163.058 67.7033 159.283 68.0527 155.52C67.9996 154.877 67.9889 154.228 67.8615 153.594ZM68.3496 152.119L68.2507 152.423L68.2835 152.481L68.3153 152.54L68.3496 152.119ZM128.607 114.566L128.984 117.05C130.371 126.16 131.802 135.268 133.77 144.273C133.879 144.769 134.519 144.103 134.401 143.143C133.191 133.262 128.624 114.449 128.606 114.557L128.607 114.566ZM116.953 94.5881C117.041 94.6932 117.125 94.8037 117.205 94.9157C117.188 94.8155 117.171 94.7142 117.152 94.6129C117.085 94.605 117.019 94.5973 116.953 94.5881Z" fill="black"/>
<path fill-rule="evenodd" clip-rule="evenodd" d="M126.156 59.2139C125.656 51.0299 122.995 41.7514 115.163 37.7332C97.898 30.8181 75.1978 48.2323 73.9959 66.0223C73.577 72.1119 76.9649 78.7661 83.1561 80.4592C84.5326 82.2792 86.6143 83.3907 88.669 84.3554C113.142 97.0266 128.95 86.7263 126.156 59.2139Z" fill="white"/>
<path fill-rule="evenodd" clip-rule="evenodd" d="M131.73 54.123C130.865 51.7258 129.952 49.347 128.991 46.9866C128.055 44.6894 127.209 42.3425 126.047 40.1541C119.104 27.0839 106.479 27.0839 99.9535 28.7917C96.5692 27.3365 90.2304 27.747 86.7065 29.0601C81.0016 31.1859 74.0474 39.5483 71.6697 43.3054C66.4201 51.6008 63.1439 62.6419 66.631 72.2276C67.0868 73.4804 67.668 74.6407 68.3225 75.759C67.9102 76.3166 67.4357 76.8447 66.9101 77.3636C65.3481 78.9059 63.7861 80.3974 62.4367 82.1369C61.0958 83.8656 59.9842 85.7039 59.1566 87.7307C57.5962 91.5531 57.5211 95.8813 59.584 99.5286C61.3789 102.702 64.5584 105.065 68.1405 105.291C68.3244 105.316 68.5086 105.34 68.6936 105.358C69.1682 106.138 69.747 106.857 70.4075 107.483C72.4312 109.404 77.2551 110.389 80.0065 110.453C80.1476 110.566 80.29 110.679 80.4324 110.791C82.1159 112.113 83.8825 113.447 85.8153 114.388C87.1244 115.026 88.8409 115.559 90.2068 115.098C90.8264 115.511 91.8429 115.425 92.4572 115.086C93.4671 114.531 94.2884 113.531 94.7881 112.508C95.9997 110.022 95.7083 107.303 95.3972 104.648C95.0544 101.715 94.7248 98.7809 94.3899 95.8481C94.1276 93.5549 93.8534 91.2234 93.1546 89.0143C92.7934 87.8697 92.3201 86.7697 91.7084 85.7356C91.7242 85.6488 91.7216 85.5619 91.6965 85.4803C91.4961 84.8304 91.0822 84.4896 90.5917 84.0475C90.5284 83.991 90.4652 83.9331 90.4032 83.8739C90.158 83.5949 89.8956 83.3357 89.6148 83.116C89.5067 83.0068 89.3999 82.8963 89.2931 82.7858C88.4059 81.8582 87.5674 80.8833 86.8225 79.8386C86.1 78.8255 85.4474 77.7677 84.8265 76.6901C84.195 75.5941 83.7771 74.385 83.1469 73.2969C83.0928 73.2035 82.9557 73.185 82.8793 73.2627C82.6841 73.464 82.5589 73.6876 82.5826 73.9232L82.4851 73.9376C82.4481 73.5824 82.1199 73.2929 81.6743 73.3706C81.0072 73.4863 80.4587 73.5298 79.8813 73.3087C79.9828 72.6364 80.0764 71.9627 80.1687 71.2878C80.3374 70.0458 80.4943 68.7998 80.6288 67.5538C80.9544 67.6314 81.2774 67.7433 81.5938 67.8854C82.0447 68.0867 82.4706 68.3577 82.8344 68.6906C83.193 69.0195 83.4409 69.4629 83.8786 69.6918C84.3822 69.9537 84.99 69.5208 84.8423 68.9524C84.543 67.8038 82.8489 67.1459 81.8008 66.9288C81.4409 66.8538 81.0731 66.8223 80.7053 66.8302C80.7883 66.0302 80.8621 65.2303 80.9228 64.429C80.9518 64.0501 80.9782 63.6711 81.0032 63.2909C81.818 63.0449 82.6907 62.9712 83.5384 63.087C83.8179 63.3093 84.0974 63.529 84.3677 63.7514C85.226 64.4593 86.0803 65.1711 86.924 65.896C87.0005 65.9605 87.0756 66.0249 87.1521 66.0907C87.6531 66.521 88.278 66.0947 88.1936 65.4855C87.5054 60.4937 90.5693 56.5229 94.1566 53.4468C98.1275 50.0404 105.347 49.6437 110.069 43.7434C112.244 44.1852 117.1 45.4972 119.104 48.6839C121.91 53.1494 121.543 57.1505 121.757 62.216C121.97 67.2854 122.513 72.5732 121.36 77.5716C120.296 82.1805 117.415 86.1185 112.946 87.9289C112.835 87.9736 112.723 88.017 112.611 88.0591C110.3 88.9288 107.778 89.1749 105.347 88.717C102.656 88.2091 100.41 86.9803 98.171 85.4685C98.0418 85.383 97.8533 85.5593 97.9509 85.6882C100.901 89.5906 106.697 90.8945 111.294 89.8643C111.509 89.8156 111.723 89.763 111.935 89.7051C110.907 92.6562 111.113 95.8955 112.453 98.769C113.258 100.498 114.487 101.994 115.984 103.174C117.633 104.474 119.679 105.524 120.823 107.349C121.871 109.021 121.56 110.9 119.766 111.866C119.314 112.11 119.14 112.901 119.588 113.248C119.759 113.38 119.931 113.514 120.106 113.646C121.111 114.402 123.87 115.823 124.317 115.876C128.285 116.346 130.954 113.438 132.664 110.008C134.671 105.982 134.149 101.075 131.937 97.2415C130.163 94.1653 126.668 91.134 128.057 87.2408C128.553 85.8501 129.567 84.6646 130.552 83.5936C131.675 82.374 132.882 81.2319 133.96 79.9688C135.03 78.715 135.979 77.3506 136.509 75.777C137.283 73.4771 136.898 70.9904 136.317 68.6945C135.071 63.7659 133.453 58.903 131.73 54.123Z" fill="black"/>
<path fill-rule="evenodd" clip-rule="evenodd" d="M113.582 75.1713C114.034 74.3748 115.384 74.5043 115.59 75.4333C116.009 77.3166 113.759 79.0557 112.049 79.0991C110.351 79.1421 108.445 77.6995 108.691 75.8772C108.752 75.4264 109.355 75.4812 109.561 75.7638L109.641 75.8722C110.199 76.6211 110.936 77.3963 111.973 77.2137C112.403 77.1382 112.793 76.8703 113.053 76.5254C113.366 76.1093 113.332 75.6123 113.582 75.1713ZM102.781 61.3931C103.012 61.3299 103.244 61.3543 103.448 61.4409C103.903 61.5242 104.284 61.9031 104.417 62.3357C104.428 62.3732 104.44 62.4102 104.452 62.4468L104.473 62.5014L104.418 62.3627C104.443 62.4993 104.555 62.6428 104.595 62.7799C104.644 62.9484 104.656 63.1399 104.64 63.3254C104.784 63.3268 104.929 63.3317 105.074 63.3442L105.213 63.3567C105.994 63.4291 106.851 63.562 107.314 64.2353C107.574 64.6137 107.33 65.295 106.853 65.3679C106.117 65.4801 105.484 65.0741 104.751 64.9928C104.059 64.9158 103.334 64.9599 102.65 65.0848C101.238 65.3423 99.9414 65.9133 98.5658 66.2716L98.3785 66.319L98.3788 66.3181C98.1431 66.3749 97.8754 66.0479 98.1087 65.8566C99.2107 64.9531 100.622 64.2209 102.012 63.775C101.809 63.4535 101.746 63.0302 101.885 62.685C101.906 62.6135 101.933 62.544 101.961 62.4747L102.019 62.332C102.025 62.2648 102.038 62.1984 102.057 62.1332L102.06 62.1134L102.062 62.1145C102.165 61.7789 102.435 61.4884 102.781 61.3931ZM116.841 61.4451C117.143 61.1442 117.566 61.1886 117.881 61.4255L117.923 61.4581C118.219 61.5896 118.464 61.8768 118.625 62.1429C118.793 62.4194 118.904 62.7009 118.908 63.0053C119.638 63.0076 120.337 63.226 120.872 63.8139C121.045 64.0036 121.163 64.2962 121.068 64.5535L121.012 64.7065C120.832 65.1923 120.023 65.4719 119.748 64.9006L119.736 64.8728C119.444 64.1944 118.323 64.2656 117.727 64.3349C117.311 64.3835 116.901 64.4865 116.5 64.6019C116.359 64.6425 116.219 64.6867 116.079 64.7317L115.939 64.777C115.865 64.8011 115.476 65.0117 115.718 64.9619C115.783 64.9484 115.832 65.0429 115.765 65.0746C115.477 65.2121 115.17 64.9383 115.189 64.6294C115.222 64.0931 116.076 63.7991 116.486 63.6142L116.511 63.603C116.668 63.5304 116.833 63.4608 117.003 63.3962C116.908 63.2541 116.828 63.0962 116.763 62.9267C116.7 62.7667 116.659 62.6112 116.636 62.4411C116.614 62.3579 116.614 62.2748 116.636 62.1915L116.639 62.1677C116.628 62.1127 116.622 62.0558 116.623 61.9986L116.621 61.9764H116.623C116.631 61.776 116.711 61.5752 116.841 61.4451ZM112.026 67.1559C113.184 67.513 115.095 68.4857 114.491 69.987C113.649 71.3659 111.414 70.3525 110.331 69.907C109.358 69.5855 108.852 70.9461 109.793 71.3562C117.566 74.4251 117.537 66.3257 112.308 66.4446C111.732 66.4576 111.714 67.0372 112.026 67.1559ZM101.742 56.5951L101.94 56.5376C102.966 56.2409 104.014 55.7285 104.925 56.528C105.283 56.8419 105.357 57.4942 105.101 57.8858C104.517 58.778 103.652 58.6416 102.71 58.7177C101.993 58.7756 101.287 58.9858 100.617 59.2486C100.07 59.4634 99.5626 59.7659 99.0835 60.1033C98.6128 60.435 98.2913 60.9535 97.8085 61.252C97.6316 61.3615 97.4272 61.2489 97.3637 61.0714C97.1385 60.4418 97.519 59.6575 97.8409 59.1211C98.2339 58.4667 98.8309 57.9314 99.4728 57.5264C100.176 57.0829 100.953 56.8268 101.742 56.5951ZM116.697 55.9176C118.432 55.9171 120.101 56.8801 121.072 58.2917C121.401 58.7713 121.16 59.4818 120.687 59.7579C120.156 60.0679 119.588 59.8447 119.238 59.4005L119.217 59.3736C118.661 58.6341 117.943 58.0516 117.093 57.6724C116.678 57.4873 116.219 57.3372 115.771 57.261L115.626 57.2362C115.422 57.2022 115.186 57.1697 115.003 57.2015C114.904 57.2144 114.814 57.2469 114.73 57.2964C114.77 57.3837 114.667 57.489 114.571 57.4366C114.14 57.2003 114.193 56.7788 114.549 56.4512C115.053 55.9876 116.047 55.9178 116.697 55.9176Z" fill="black"/>
</svg>
