<svg width="148" height="112" viewBox="0 0 148 112" fill="none" xmlns="http://www.w3.org/2000/svg">
<path fill-rule="evenodd" clip-rule="evenodd" d="M73.1173 109.297C65.3308 107.905 56.8754 97.259 49.0087 96.4401C36.622 95.1506 20.2254 113.876 13.8534 103.128C6.91224 91.419 25.3309 79.6893 22.4776 66.3666C19.6802 53.3051 1.81728 52.1558 0.0994601 38.9074C-1.32235 27.942 12.876 20.4883 22.4776 15.0807C31.0824 10.2345 41.4121 10.2883 51.2749 10.0855C58.7653 9.93153 68.6036 11.6104 75.9402 10.0855C85.8952 8.01652 89.6288 -0.123912 99.7938 0.00143127C109.414 0.120051 124.148 5.00622 124.269 14.6703C124.448 28.9106 112.102 38.2793 117.235 51.5542C123.547 67.8753 137.894 57.3581 146.635 72.5064C152.254 82.2438 139.264 94.5679 130.593 101.695C122.159 108.628 110.499 109.661 99.6941 111.09C90.7794 112.269 81.9698 110.879 73.1173 109.297Z" fill="#FD87CD" fill-opacity="0.15"/>
</svg>
