<svg width="231" height="250" viewBox="0 0 231 250" fill="none" xmlns="http://www.w3.org/2000/svg">
<path fill-rule="evenodd" clip-rule="evenodd" d="M106.855 32.2921L108.61 34.3796C107.638 35.0644 106.721 35.7526 105.858 36.4441L105.858 36.4421C109.854 33.8339 114.279 32.2921 119.06 32.2921C128.268 32.2921 146.972 40.205 151.2 45.9125C153.298 48.7449 157.197 57.4403 159.22 66.8937C160.845 74.4894 163.262 95.9483 160.845 104.012C157.752 114.331 147.574 123.869 137.08 123.869C126.585 123.869 110.293 116.29 98.6967 99.6802C98.1665 98.9207 92.0775 98.0403 87.7338 95.1897L88.8743 107.759L89.741 115.07L89.5498 115.59C86.4388 124.007 83.9735 128.398 82.154 128.763C80.2973 129.136 76.5162 126.092 70.8107 119.629L70.0816 116.568C68.2299 108.759 67.304 104.568 67.304 103.993L67.3053 103.889C67.3326 102.567 67.7877 95.0869 67.797 93.0739L67.7972 62.9028C73.9333 42.4957 79.7889 32.2921 85.3639 32.2921H106.855Z" fill="white"/>
<path fill-rule="evenodd" clip-rule="evenodd" d="M92.3165 25.3423C94.1206 24.6432 96.2107 24.7753 97.9232 25.828C101.285 25.6837 104.629 27.6509 106.382 30.5224C106.419 30.5631 106.457 30.6037 106.492 30.6443L106.863 31.0775C107.215 31.4912 107.586 31.9471 107.88 32.4179C106.44 32.4508 105.241 33.0379 104.403 34.2237C103.806 35.0698 105.175 35.8738 105.785 35.0736L105.807 35.0443C106.31 34.3324 107.068 34.0566 107.913 34.0422C108.156 34.0381 108.34 33.9453 108.47 33.8083C108.522 33.9971 108.568 34.1879 108.611 34.3796C112.865 32.7243 117.451 32.286 122.018 32.6786C121.818 33.0029 121.651 33.3504 121.522 33.7156C121.376 34.1296 121.688 34.6049 122.09 34.7155C122.524 34.835 122.917 34.5801 123.075 34.1862L123.089 34.1477C123.265 33.6502 123.551 33.2232 123.936 32.8922C126.086 33.1838 128.221 33.6475 130.304 34.2454C132.807 34.9646 135.287 35.8423 137.712 36.8473C137.301 37.0084 136.947 37.2807 136.698 37.7353C136.202 38.6428 137.566 39.4556 138.083 38.588L138.101 38.556C138.152 38.4629 138.197 38.407 138.23 38.3752L138.242 38.3643L138.313 38.3314L138.447 38.2932L138.498 38.2806C138.543 38.2705 138.562 38.2711 138.68 38.2645C138.838 38.2556 138.997 38.2564 139.155 38.2562C139.527 38.256 139.765 38.0485 139.872 37.7831C141.069 38.3235 142.25 38.8925 143.411 39.4885L143.687 39.6314C147.269 41.5038 150.663 43.9628 152.631 47.5808C152.762 47.8226 152.802 48.0868 152.77 48.3388C153.19 48.8428 153.596 49.3631 153.986 49.8914C155.177 51.5091 156.048 53.3482 156.873 55.1711C158.533 58.8373 159.65 62.6029 160.521 66.5292C161.365 70.3132 162.045 74.1378 162.677 77.9624C163.378 82.2118 163.961 86.4977 164.083 90.8081C164.298 98.4919 162.797 106.22 158.484 112.689C154.637 118.46 148.843 123.043 141.973 124.51C134.984 126.002 127.59 124.547 122.083 119.889C121.195 119.139 121.317 117.625 122.083 116.857C122.951 115.991 124.23 116.111 125.114 116.857C130.3 121.245 137.849 121.921 144.098 119.686C149.875 117.617 154.401 112.845 157.178 107.486C160.566 100.951 161.137 93.4438 160.617 86.2132C160.333 82.2423 159.741 78.3038 159.132 74.3715L158.764 72.0045C158.363 69.4406 157.941 66.8803 157.391 64.3425L157.262 63.7513C156.59 60.691 155.803 57.5522 154.586 54.6753C153.948 53.1653 153.18 51.7103 152.394 50.2735C152.242 49.9951 152.085 49.7126 151.924 49.4281C151.709 49.5033 151.463 49.5155 151.205 49.4342C148.985 48.7432 146.704 48.2799 144.382 48.1254C143.324 48.0547 142.265 48.0438 141.207 48.085C139.395 47.9795 137.533 48.1389 135.808 48.6945C135.639 48.5496 135.468 48.4077 135.297 48.2659C135.251 48.2622 135.204 48.2573 135.158 48.2482C134.718 48.1616 134.408 47.8487 134.222 47.4534C134.212 47.4325 134.203 47.4115 134.195 47.3906C133.974 47.2217 133.752 47.0555 133.527 46.8915C132.979 47.0335 132.499 46.5777 132.37 46.0782C132.248 45.9959 132.124 45.9162 132.001 45.8356C131.905 45.8591 131.809 45.8786 131.715 45.8855C131.312 45.9146 130.923 45.8528 130.565 45.6604C130.113 45.4167 129.824 45.0237 129.631 44.5772C128.946 44.6193 128.254 44.3971 127.642 43.9956C127.146 43.6698 126.766 43.2201 126.388 42.7712C121.781 40.7156 116.773 39.502 111.753 39.191C111.259 39.2861 110.768 39.3993 110.283 39.531C110.168 39.5623 110.005 39.6237 109.818 39.6972C110.937 39.5619 112.07 39.5485 113.22 39.7141C118.675 40.5032 122.924 44.5892 126.581 48.4461C127.451 48.2703 128.33 49.3972 127.525 50.1434L121.248 55.9619C121.402 56.6126 120.656 57.254 120.003 57.0977C118.907 56.8343 117.809 56.5782 116.711 56.3265C115.565 56.881 114.125 56.7861 113.086 55.9822C113.037 55.9448 112.932 55.8851 112.841 55.8257C112.756 55.8962 112.641 55.967 112.595 55.997C112.226 56.2417 111.775 56.3136 111.344 56.245C110.9 56.1744 110.499 55.9491 110.153 55.6684C109.933 55.4897 109.421 54.7437 109.136 54.6888L109.108 54.6856C109.298 54.6911 108.686 55.2599 108.522 55.3776C108.138 55.6513 107.714 55.7952 107.237 55.7428C106.406 55.6513 105.691 54.893 105.284 54.1929L105.253 54.1392L105.24 54.1059L105.23 54.1419C105.228 54.1483 105.225 54.1551 105.223 54.1628C105.162 54.3276 104.97 54.5149 104.84 54.6302C104.47 54.958 104.011 55.102 103.521 55.0165C103.106 54.9443 102.758 54.6936 102.477 54.3903L102.434 54.342C102.351 54.2484 101.804 53.5141 101.891 53.3381L101.901 53.3232L101.873 53.3176C101.541 53.3993 101.262 53.3174 101.058 53.146C99.9173 52.8961 98.7916 52.6049 97.702 52.2346C97.6167 52.4744 97.5332 52.7142 97.4521 52.956C98.0471 53.3239 98.5976 53.8482 99.1035 54.2221C100.063 54.9293 101.021 55.6365 101.978 56.3458L105.769 59.1433L106.202 59.0269C106.756 58.8781 107.232 59.2007 107.435 59.6938L107.452 59.7365C107.532 59.9525 107.63 60.1523 107.744 60.3435C108.691 60.3057 109.494 60.8878 109.753 61.7226C109.987 61.7173 110.224 61.7262 110.465 61.7529C111.127 61.8256 111.574 62.3174 111.454 62.9927L111.445 63.0391L111.429 63.1143C111.812 63.2772 112.091 63.592 112.152 64.068C112.255 64.2226 112.338 64.3909 112.391 64.5783C112.668 65.5505 112.129 66.7523 111.842 67.6837L111.82 67.7566C111.636 68.3687 111.446 68.9779 111.253 69.5868L110.772 71.0985C109.441 75.3118 108.142 79.7539 109.22 84.1708C109.45 85.1057 108.255 85.5284 107.737 84.7968C106.481 83.0255 105.124 81.3564 103.7 79.7542L103.631 79.7432C102.633 79.5427 102.246 78.8377 101.788 78.1191C101.518 78.1986 101.228 78.2173 100.948 78.1632C100.542 78.085 100.178 77.8531 99.8911 77.5602C99.6479 77.3119 99.425 76.675 99.1376 76.5171C98.778 76.3198 98.0553 76.6019 97.6258 76.5384C97.2766 76.487 96.9506 76.3671 96.6343 76.2165C96.0529 77.0093 95.6675 77.9413 95.5731 78.946C95.5363 79.3281 95.4225 79.6512 95.258 79.9194C95.8634 79.8971 96.4708 79.9398 97.0702 80.0515C99.2885 80.4641 100.879 81.8338 101.773 83.8741C101.811 83.9636 101.696 84.0367 101.643 83.9514C100.316 81.909 97.4296 81.8053 95.3332 82.5247C93.1067 83.2889 91.8574 85.2499 91.4127 87.4874C90.9252 89.9403 91.5507 92.5842 92.8855 94.6733C93.5049 95.6447 94.3502 96.5308 95.4733 96.8884C96.8082 97.3132 98.041 96.5531 99.4082 96.9453C100.339 97.2116 100.749 98.1118 100.58 99.0121C100.513 99.3657 100.389 99.6746 100.223 99.9428C100.715 100.918 101.169 101.922 101.748 102.845C102.642 104.269 103.723 105.448 104.901 106.637C106.118 107.864 107.357 109.067 108.659 110.206C109.907 111.297 111.337 112.073 112.645 113.073C113.563 113.774 114.018 114.758 113.565 115.884C113.192 116.814 111.932 117.607 110.912 117.186C108.96 116.381 107.251 115.012 105.696 113.601C104.253 112.293 102.998 110.728 102.049 109.029C101.154 107.427 100.495 105.608 99.9383 103.856L99.8693 103.637C99.6073 102.804 99.3312 101.867 99.1524 100.922C98.0819 101.508 96.6292 101.593 95.4837 101.435C93.6329 101.18 91.9448 100.248 90.669 98.8881C90.0744 98.2555 89.5489 97.5339 89.0951 96.7517C89.1363 97.2278 89.1609 97.6885 89.1873 98.1078C90.2479 99.2698 90.6733 100.947 90.2969 102.477C91.1842 103.391 91.4328 104.762 90.9697 105.93C91.9409 106.893 91.9043 108.427 91.4844 109.82C92.6326 111.103 92.7413 113.103 91.8448 114.552L91.8178 114.656C92.723 116.171 92.5188 118.129 91.3847 119.467C92.1593 120.97 92.0394 122.992 90.1037 123.575C89.3982 123.788 88.7144 123.606 88.2027 123.211C88.6699 125.536 88.8789 127.896 88.2559 130.231C88.0079 131.158 87.1018 131.834 86.1491 131.834C85.3528 131.834 84.7738 131.434 84.3739 130.845C84.4206 132.017 84.3495 133.196 84.0996 134.385C83.9489 135.103 83.2832 135.663 82.5765 135.836C82.8314 136.124 82.933 136.54 82.6886 136.973C81.6524 138.808 79.1486 138.047 78.9794 136.289C78.2723 135.761 77.9436 134.894 77.8075 133.957C77.6092 132.591 77.5373 131.247 77.3126 129.899L77.2268 129.979L77.1824 130.018L77.1682 130.115C77.0394 130.782 76.6636 131.249 76.1759 131.527C76.2819 132.69 76.0857 133.874 75.3483 134.757C74.8571 135.345 74.0203 135.577 73.303 135.45C73.2579 135.452 73.2118 135.452 73.1639 135.445C71.5393 135.229 70.5994 133.688 71.027 132.273C70.3729 131.471 70.0974 130.454 70.291 129.448C69.0253 128.609 69.0511 126.768 69.4894 125.289C68.1625 124.241 67.6634 122.283 68.3301 120.726C67.1342 119.24 66.9678 117.17 67.7804 115.478C66.4647 114.397 66.4722 112.309 67.7772 111.203C67.0822 109.823 66.6631 108.169 67.3577 106.906C66.8677 106.365 66.5987 105.594 66.6554 104.849C66.7385 103.755 67.4621 102.999 68.36 102.496L68.4221 102.153C68.633 102.18 68.8577 102.121 69.0557 101.93C69.2518 101.742 69.4535 101.59 69.6621 101.465C69.8984 101.462 70.1017 101.357 70.2447 101.195C70.636 101.062 71.0567 101.003 71.5233 100.998C72.5311 100.987 72.5666 99.4791 71.6287 99.3813C71.4806 99.232 71.2767 99.1379 71.0555 99.1379L70.8822 99.1386C70.4772 99.1424 70.0683 99.1674 69.6926 99.3285C69.4484 99.433 69.2601 99.5905 69.1222 99.7831C69.0964 100.075 68.9379 100.365 68.5948 100.605C68.1985 100.882 67.6565 100.915 67.2323 100.664C66.6386 100.313 66.6325 99.7646 66.7009 99.1688C66.8508 97.8653 66.1016 96.6387 66.28 95.3051C66.359 94.7156 66.5553 94.2065 66.8752 93.7954C66.2006 92.7852 66.0815 91.4811 66.601 90.3721C65.5188 89.2075 65.3317 87.4122 66.0218 86.0106C66.0318 85.9767 66.0395 85.9419 66.0503 85.9084C66.1283 85.6702 66.2357 85.4554 66.3542 85.2499C65.7484 84.2001 65.7529 82.9119 66.3686 81.8665C65.436 80.7789 65.4063 79.048 66.2357 77.8763C66.2406 77.7791 66.2508 77.682 66.2591 77.5848C65.8784 76.5962 65.9698 75.4721 66.4527 74.5528C66.2804 74.1555 66.1476 73.7277 66.0626 73.2721C65.8451 72.0975 65.957 70.9553 66.282 69.8092C66.3347 69.6283 66.3936 69.4474 66.4565 69.2666C66.4671 68.4815 66.497 67.6999 66.5364 66.9198C66.3819 66.2594 66.357 65.5336 66.3536 64.8598L66.3526 64.4229C66.3451 63.3111 66.2676 61.6831 66.9703 60.738C66.5191 59.717 66.7046 58.4306 67.4576 57.6214C66.929 56.712 66.8181 55.5953 67.3493 54.5863C67.4347 54.4239 67.5336 54.2727 67.6421 54.1296C67.5982 53.2056 67.7926 52.2527 68.2848 51.3343C68.6046 50.7364 69.0821 50.2188 69.6499 49.8047C69.6404 49.6821 69.6345 49.5598 69.6365 49.4393C69.6465 48.9016 69.7657 48.3616 69.9664 47.8578C69.6063 47.2429 69.4393 46.5497 69.6499 45.8026C69.8856 44.9572 70.5054 44.2297 71.2791 43.8192C71.3415 43.0222 71.466 42.2298 71.644 41.448C71.1684 40.3886 71.5471 38.9904 72.6219 38.3663C72.4817 37.5197 72.6081 36.6418 73.224 35.9805C73.4574 35.73 73.7325 35.5399 74.0284 35.4139C73.8858 34.5627 74.0467 33.677 74.6352 32.9838C75.1159 32.4179 75.8281 32.074 76.5529 32.0234C76.832 30.5427 78.2461 29.4356 79.738 29.5238C79.9244 28.8718 80.3699 28.3034 81.061 28.0153C81.238 27.9415 81.4167 27.8929 81.5949 27.8659C82.808 26.6417 84.6142 25.8119 86.1778 25.387C87.7462 24.9625 89.336 24.9214 90.6827 25.415L90.7807 25.452L90.8904 25.4378C91.366 25.385 91.8411 25.3545 92.3165 25.3423ZM80.3986 125.68C79.9797 125.549 79.5125 125.835 79.3989 126.248C79.2791 126.684 79.546 127.117 79.9665 127.248C80.4904 127.411 81.0407 127.452 81.5867 127.452C82.0257 127.453 82.3993 127.078 82.3993 126.639C82.3993 126.198 82.0274 125.827 81.5867 125.827C81.1427 125.826 80.8148 125.81 80.3986 125.68ZM76.6713 117.047C76.045 117.048 75.5079 117.198 75.0435 117.637C74.734 117.929 74.7262 118.495 75.0435 118.786C75.364 119.08 75.829 119.098 76.158 118.818L76.2214 118.761C76.229 118.754 76.2349 118.748 76.2396 118.744C76.266 118.727 76.2927 118.709 76.3207 118.695L76.2677 118.729C76.2273 118.758 76.3209 118.711 76.3734 118.688L76.39 118.681L76.3952 118.68L76.4373 118.677C76.5151 118.673 76.5933 118.673 76.6713 118.673C77.0963 118.673 77.5034 118.3 77.4839 117.86C77.464 117.42 77.1268 117.047 76.6713 117.047ZM88.4894 111.89C89.369 111.35 88.5834 109.97 87.7013 110.467L87.6694 110.486C87.2172 110.764 86.661 110.726 86.1486 110.726C85.1031 110.727 85.1012 112.353 86.1486 112.352L86.3217 112.352C87.0728 112.346 87.8324 112.293 88.4894 111.89ZM81.5681 105.956C80.9036 105.831 80.1592 105.719 79.46 105.796L79.3439 105.81H79.1288C78.9419 105.81 78.7609 105.885 78.6156 106.004C78.3857 106.099 78.1679 106.227 77.9692 106.399C77.1776 107.086 78.3312 108.232 79.1184 107.549C79.1621 107.511 79.2129 107.48 79.2693 107.454L79.3126 107.436H80.1818C80.2609 107.436 80.3379 107.419 80.4128 107.396C80.695 107.434 80.9579 107.49 81.136 107.524C82.1582 107.716 82.5962 106.15 81.5681 105.956ZM80.8267 90.3528C79.553 89.7619 78.1424 89.7661 76.9644 90.5867C76.122 91.1736 76.9045 92.5574 77.7541 92.0109L77.7845 91.9906C77.8901 91.917 77.9986 91.8555 78.1083 91.7996C78.7063 91.9725 79.3083 91.9806 79.8865 91.768L79.9618 91.739L80.0066 91.7565C80.9492 92.1938 81.7756 90.793 80.8267 90.3528ZM94.6954 87.8055C93.4087 87.6612 93.3984 85.6278 94.6954 85.7733C97.434 86.0806 99.9188 87.2985 101.739 89.39C102.585 90.3628 101.191 91.7859 100.329 90.8565L100.302 90.827C98.8552 89.1638 96.9022 88.053 94.6954 87.8055ZM80.2814 77.3656C79.9954 77.3343 79.71 77.3186 79.4291 77.3322C78.7542 77.3647 77.9323 77.8151 78.2285 78.6288C78.466 79.2807 79.2444 79.3065 79.6287 78.9588C79.7886 78.9627 79.9483 78.9732 80.1074 78.9895C80.5317 79.0332 80.952 79.1141 81.3703 79.1966C82.3919 79.3976 82.8292 77.8309 81.8024 77.6287L81.3482 77.5388C81.1951 77.5089 81.0407 77.4796 80.8856 77.4527C80.7928 77.4066 80.6933 77.3755 80.5869 77.3676L80.5331 77.3656H80.2814ZM72.2072 64.7526L72.1118 64.7397C70.7396 64.564 68.5368 64.7257 68.3703 66.4731C68.2783 67.4408 69.6759 67.5016 69.9518 66.6741C70.965 66.4914 71.9866 66.4564 72.993 66.5674C73.3769 66.1772 73.38 65.4271 72.7409 65.2399C72.6507 64.9973 72.4624 64.7894 72.2072 64.7526ZM103.574 61.8012C103.257 61.51 102.737 61.4714 102.425 61.8012C102.245 61.991 102.095 62.202 101.976 62.4341L101.897 62.5908C101.883 62.6168 101.87 62.6426 101.856 62.6682C101.829 62.7155 101.799 62.7606 101.77 62.8066L101.75 62.8258C101.743 62.8336 101.734 62.8431 101.723 62.8547C101.43 63.1638 101.393 63.7018 101.723 64.0044C102.04 64.2956 102.56 64.3342 102.872 64.0044C103.051 63.8145 103.202 63.6038 103.321 63.3715L103.399 63.215C103.413 63.189 103.427 63.1632 103.441 63.1376C103.467 63.0901 103.498 63.0449 103.526 62.999L103.559 62.9667C103.563 62.9619 103.568 62.9566 103.574 62.9509C103.866 62.642 103.903 62.1038 103.574 61.8012ZM86.9104 59.6843C85.7655 58.8726 84.4041 58.8348 83.3516 59.8113C82.5921 60.5161 83.708 61.6454 84.4739 60.985L84.5008 60.9609C84.5286 60.9349 84.5568 60.9121 84.5849 60.8904C84.7222 61.0075 84.8967 61.0816 85.0962 61.0818C85.1483 61.082 85.2004 61.0818 85.2524 61.0829L85.3304 61.0857L85.3723 61.0892L85.3775 61.0902L85.4141 61.1057C85.4809 61.1359 85.5731 61.1824 85.4466 61.1032C85.4748 61.118 85.5012 61.1355 85.5281 61.1526L85.5748 61.195C85.8811 61.4848 86.4111 61.523 86.7152 61.2025C87.2538 61.0205 87.5396 60.1299 86.9104 59.6843ZM98.1044 57.0211L98.1252 57.0146C99.1291 56.7278 98.7023 55.1587 97.6931 55.4467C96.6224 55.7526 96.1111 56.7494 95.897 57.7703C95.807 58.1998 96.0229 58.6491 96.4645 58.7704C96.868 58.8812 97.3736 58.6342 97.4642 58.2026C97.5277 57.8991 97.601 57.6415 97.717 57.4026L97.7871 57.2661C97.82 57.204 97.8314 57.1936 97.9422 57.0969C97.9608 57.0806 98.0454 57.0412 98.1044 57.0211ZM81.0998 48.8331L80.9428 48.7972C79.9647 48.5829 78.6666 48.471 78.076 49.4409C77.5377 50.3245 78.8957 51.1289 79.455 50.2936C79.4635 50.2933 79.4733 50.2934 79.4847 50.2944L79.5031 50.2965L79.7538 50.2761C80.066 50.2739 80.3648 50.3292 80.6677 50.4009C81.6846 50.6417 82.1188 49.0745 81.0998 48.8331ZM116.21 42.5832C116.951 41.8425 115.802 40.6924 115.062 41.4338C114.476 42.0197 113.911 42.6096 113.53 43.354C113.331 43.7446 113.428 44.236 113.822 44.4662C114.185 44.6786 114.733 44.5668 114.934 44.1746C115.263 43.5294 115.68 43.1144 116.21 42.5832ZM106.867 40.6388C106.135 41.072 105.662 41.7858 105.374 42.6119C105.23 43.0264 105.539 43.5009 105.942 43.6117C106.375 43.7308 106.771 43.4769 106.927 43.0825L106.941 43.0439C107.018 42.823 107.141 42.5621 107.294 42.3651C107.424 42.1971 107.626 42.0288 107.778 41.9729C108.144 41.8384 108.404 41.5063 108.37 41.1186C107.768 41.3269 107.208 41.0763 106.867 40.6388ZM84.9686 37.1027C84.2306 36.4174 83.2405 36.3266 82.3459 36.7414C81.9475 36.9259 81.8478 37.5004 82.0544 37.8536C82.2932 38.2623 82.7664 38.3306 83.1659 38.1452C83.0634 38.1928 83.2486 38.13 83.3287 38.107C83.3389 38.1118 83.473 38.1057 83.5193 38.1063L83.575 38.1099C83.5754 38.1102 83.5618 38.11 83.534 38.1091C83.573 38.1179 83.6116 38.1284 83.6496 38.1405L83.698 38.1573C83.6736 38.1522 83.7834 38.2238 83.8139 38.2476L83.8195 38.2521C84.5853 38.9632 85.7373 37.8162 84.9686 37.1027Z" fill="black"/>
<path fill-rule="evenodd" clip-rule="evenodd" d="M143.931 99.762C144.628 98.5317 146.708 98.7317 147.026 100.167C147.671 103.076 144.204 105.762 141.57 105.829C138.953 105.895 136.016 103.667 136.395 100.852C136.489 100.156 137.419 100.241 137.735 100.677L137.859 100.845C138.719 102.001 139.855 103.199 141.452 102.917C142.114 102.8 142.716 102.386 143.116 101.854C143.599 101.211 143.546 100.443 143.931 99.762ZM127.291 78.4806C127.645 78.3828 128.003 78.4206 128.317 78.5544C129.019 78.683 129.605 79.2683 129.811 79.9365C129.827 79.9943 129.846 80.0514 129.866 80.108L129.897 80.1923L129.813 79.9781C129.852 80.1891 130.023 80.4108 130.085 80.6225C130.161 80.8829 130.179 81.1785 130.154 81.4651C130.377 81.4673 130.6 81.4748 130.823 81.4942L131.038 81.5134C132.241 81.6253 133.562 81.8305 134.275 82.8706C134.676 83.455 134.3 84.5073 133.564 84.6199C132.431 84.7932 131.455 84.1661 130.326 84.0405C129.259 83.9216 128.142 83.9897 127.088 84.1826C124.913 84.5804 122.915 85.4623 120.795 86.0157L120.506 86.089L120.507 86.0876C120.144 86.1754 119.731 85.6701 120.091 85.3747C121.789 83.9791 123.963 82.8482 126.104 82.1595C125.792 81.663 125.696 81.0091 125.909 80.476C125.942 80.3655 125.983 80.2581 126.026 80.1511L126.117 79.9308C126.125 79.8269 126.145 79.7243 126.174 79.6237L126.179 79.593L126.181 79.5948C126.341 79.0764 126.757 78.6277 127.291 78.4806ZM148.954 78.5608C149.419 78.096 150.071 78.1647 150.556 78.5305L150.62 78.581C151.077 78.784 151.455 79.2276 151.703 79.6387C151.961 80.0657 152.132 80.5006 152.139 80.9706C153.263 80.9743 154.34 81.3116 155.165 82.2196C155.432 82.5127 155.614 82.9646 155.467 83.3619L155.38 83.5983C155.103 84.3487 153.857 84.7806 153.433 83.8982L153.414 83.8552C152.964 82.8073 151.236 82.9173 150.318 83.0244C149.679 83.0994 149.047 83.2585 148.429 83.4367C148.211 83.4995 147.995 83.5677 147.78 83.6373L147.564 83.7072C147.449 83.7444 146.85 84.0698 147.223 83.9927C147.323 83.972 147.398 84.1179 147.296 84.1669C146.852 84.3793 146.378 83.9564 146.408 83.4792C146.459 82.6509 147.774 82.1968 148.407 81.9111L148.445 81.8939C148.687 81.7817 148.941 81.6742 149.204 81.5744C149.056 81.3549 148.934 81.1111 148.833 80.8493C148.737 80.6022 148.673 80.362 148.638 80.0992C148.603 79.9708 148.603 79.8423 148.638 79.7137L148.643 79.6769C148.625 79.592 148.617 79.5042 148.618 79.4158L148.614 79.3814H148.618C148.63 79.0719 148.753 78.7618 148.954 78.5608ZM141.534 87.3816C143.318 87.9332 146.262 89.4356 145.332 91.7545C144.034 93.8843 140.591 92.3191 138.922 91.631C137.423 91.1343 136.643 93.2358 138.092 93.8693C150.069 98.6094 150.025 86.0993 141.969 86.283C141.081 86.3031 141.054 87.1983 141.534 87.3816ZM125.688 71.0696L125.992 70.9807C127.574 70.5225 129.188 69.7311 130.592 70.9659C131.144 71.4508 131.257 72.4584 130.863 73.0631C129.964 74.4412 128.631 74.2307 127.18 74.3481C126.075 74.4375 124.986 74.7623 123.954 75.1681C123.111 75.5 122.329 75.9672 121.591 76.4882C120.866 77.0006 120.371 77.8015 119.627 78.2626C119.354 78.4316 119.039 78.2577 118.941 77.9835C118.594 77.0111 119.181 75.7997 119.677 74.9712C120.282 73.9604 121.202 73.1337 122.191 72.5081C123.274 71.8231 124.472 71.4275 125.688 71.0696ZM148.732 70.0232C151.405 70.0224 153.977 71.5098 155.472 73.6902C155.98 74.4309 155.608 75.5283 154.879 75.9549C154.061 76.4336 153.186 76.0889 152.647 75.4028L152.615 75.3613C151.757 74.2189 150.652 73.3193 149.342 72.7336C148.702 72.4477 147.995 72.2158 147.304 72.0981L147.08 72.0598C146.767 72.0073 146.404 71.9572 146.121 72.0063C145.969 72.0262 145.83 72.0764 145.701 72.1528C145.763 72.2877 145.603 72.4503 145.456 72.3694C144.792 72.0044 144.873 71.3533 145.422 70.8473C146.198 70.1313 147.729 70.0234 148.732 70.0232Z" fill="black"/>
</svg>
