<svg width="29" height="22" viewBox="0 0 29 22" fill="none" xmlns="http://www.w3.org/2000/svg">
<path d="M23.4294 12.0102C23.9762 12.0884 24.356 12.595 24.2778 13.1417C23.7697 16.6937 20.9303 19.4929 17.3587 19.9381V21C17.3587 21.5523 16.911 22 16.3588 22C15.8065 22 15.3588 21.5523 15.3588 21V19.9381C11.7872 19.4928 8.9479 16.6936 8.43982 13.1417C8.36162 12.595 8.74143 12.0884 9.28814 12.0102C9.83486 11.932 10.3415 12.3118 10.4197 12.8585C10.8354 15.7653 13.337 18 16.3588 18C19.3806 18 21.8821 15.7653 22.2979 12.8585C22.3761 12.3118 22.8827 11.932 23.4294 12.0102ZM16.3588 2.00017C19.1201 2.00017 21.3587 4.23873 21.3587 7.00012V12.0001C21.3587 14.7615 19.1201 17 16.3588 17C13.5974 17 11.3588 14.7615 11.3588 12.0001V7.00012C11.3588 4.23873 13.5974 2.00017 16.3588 2.00017Z" fill="white"/>
</svg>
