<svg width="32" height="20" viewBox="0 0 32 20" fill="none" xmlns="http://www.w3.org/2000/svg">
<g clip-path="url(#clip0_1146_14814)">
<path d="M11.6641 2.13962H20.3078V17.8676H11.6641V2.13962Z" fill="#FF5F00"/>
<path d="M12.2111 10.0037C12.2111 6.8081 13.6929 3.97367 15.9704 2.13962C14.2966 0.805823 12.1837 0 9.87875 0C4.41787 0 0 4.4738 0 10.0037C0 15.5334 4.41787 20.0073 9.87862 20.0073C12.1836 20.0073 14.2965 19.2015 15.9704 17.8676C13.6929 16.0614 12.2111 13.1992 12.2111 10.0037Z" fill="#EB001B"/>
<path d="M31.9665 10.0037C31.9665 15.5334 27.5486 20.0073 22.0878 20.0073C19.7828 20.0073 17.67 19.2015 15.9961 17.8676C18.3011 16.0337 19.7555 13.1992 19.7555 10.0037C19.7555 6.8081 18.2736 3.97367 15.9961 2.13962C17.6698 0.805823 19.7828 0 22.0878 0C27.5486 0 31.9666 4.50165 31.9666 10.0037H31.9665Z" fill="#F79E1B"/>
</g>
<defs>
<clipPath id="clip0_1146_14814">
<rect width="32" height="20" fill="white"/>
</clipPath>
</defs>
</svg>
