<svg width="16" height="16" viewBox="0 0 16 16" fill="none" xmlns="http://www.w3.org/2000/svg">
<path d="M14 6.66668C14 10.0817 10.7869 13.1397 9.06335 14.5344C8.4357 15.0423 7.5643 15.0423 6.93665 14.5344C5.21308 13.1397 2 10.0817 2 6.66668C2 5.07538 2.63214 3.54925 3.75736 2.42403C4.88258 1.29882 6.4087 0.666676 8 0.666676C9.5913 0.666676 11.1174 1.29882 12.2426 2.42403C13.3679 3.54925 14 5.07538 14 6.66668Z" fill="#716E90"/>
<path d="M8 8.66668C9.10457 8.66668 10 7.77125 10 6.66668C10 5.56211 9.10457 4.66668 8 4.66668C6.89543 4.66668 6 5.56211 6 6.66668C6 7.77125 6.89543 8.66668 8 8.66668Z" fill="white"/>
</svg>
