<svg width="16" height="15" viewBox="0 0 16 15" fill="none" xmlns="http://www.w3.org/2000/svg">
<path d="M6.31579 0H9.47368C9.89245 0 10.2941 0.166353 10.5902 0.462463C10.8863 0.758573 11.0526 1.16018 11.0526 1.57895V3.15789H14.2105C14.6293 3.15789 15.0309 3.32425 15.327 3.62036C15.6231 3.91647 15.7895 4.31808 15.7895 4.73684V13.4211C15.7895 13.8398 15.6231 14.2414 15.327 14.5375C15.0309 14.8336 14.6293 15 14.2105 15H1.57895C1.16018 15 0.758573 14.8336 0.462463 14.5375C0.166353 14.2414 0 13.8398 0 13.4211V4.73684C0 3.86053 0.702632 3.15789 1.57895 3.15789H4.73684V1.57895C4.73684 0.702632 5.43947 0 6.31579 0ZM9.47368 3.15789V1.57895H6.31579V3.15789H9.47368Z" fill="white"/>
</svg>
