<svg width="186" height="168" viewBox="0 0 186 168" fill="none" xmlns="http://www.w3.org/2000/svg">
<path fill-rule="evenodd" clip-rule="evenodd" d="M89.2192 12.6387C91.7625 11.9347 94.6861 12.0167 97.2953 12.1967C99.9451 12.3796 102.788 12.6934 105.275 13.6828C107.436 14.5429 109.259 15.9893 110.37 18.0618C111.283 19.7656 111.711 21.6342 111.98 23.5321C112.089 24.3088 112.181 25.0873 112.269 25.8666L112.448 27.4878C112.519 28.1078 112.58 28.5726 112.703 29.2642C113.045 31.1773 113.52 32.7756 114.581 34.1675C117.15 37.5371 121.345 38.665 125.16 40.1033C127.601 41.0235 129.534 42.679 130.071 45.3392C130.588 47.9055 150.262 69.4359 152.194 71.2509L152.247 71.2998C153.745 72.6488 153.569 75.1844 153.778 77.0358C154.003 79.0207 154.217 81.0072 154.42 82.9943C154.832 87.0314 155.199 91.0728 155.522 95.1177C156.782 110.937 157.353 126.812 157.232 142.681L157.224 143.579C157.205 145.593 157.22 147.616 157.13 149.628C157.043 151.561 156.458 153.497 154.666 154.507C153.006 155.442 150.907 155.36 149.052 155.453L148.941 155.459C146.951 155.568 144.959 155.658 142.967 155.731C134.87 156.031 126.766 156.063 118.664 156.026C102.592 155.952 86.5032 155.599 70.446 156.499C66.3529 156.728 53.3039 155.334 49.2236 155.731C45.3237 156.111 48.6699 158.024 46.2607 157.897C38.3374 157.483 30.8219 155.715 23.2306 153.586C22.2824 153.32 21.5572 152.399 21.5691 151.405C21.7101 140.478 22.0186 129.554 22.5006 118.638C22.9299 108.913 23.4958 99.1951 24.1977 89.4866C24.5029 85.2666 24.8337 81.0484 25.1901 76.8324L25.3445 75.0256C25.5458 72.6957 25.6617 70.323 26.1198 68.0254C26.573 65.753 27.6012 63.7824 29.092 62.0217C30.4298 60.4421 45.5758 48.0762 49.2236 45.7351C52.7152 43.4941 56.3815 41.6036 59.966 39.5266C61.4572 38.6626 62.8894 38.9735 64.1634 37.9128C64.835 37.3537 74.5804 33.5863 77.2097 32.3432L77.2871 32.3063C79.2995 31.3408 81.1515 30.2939 82.542 28.6244C83.0081 28.0648 83.9223 24.539 83.9241 23.4125C83.9273 21.4001 83.7747 19.2802 84.3818 17.3308C85.1078 14.9997 86.8575 13.2924 89.2192 12.6387ZM93.5307 64.5274L77.9585 94.8536H88.0844L80.8261 111.703H96.7658L91.1115 135.304L123.447 94.8536H111.313L123.447 78.9272H115.031L123.447 65.4396L93.5307 64.5274Z" fill="white"/>
<path fill-rule="evenodd" clip-rule="evenodd" d="M145.843 81.5806C145.807 81.6163 145.769 81.6525 145.733 81.6903C145.774 81.6317 145.81 81.5709 145.843 81.5105V81.5806ZM115.578 72.7466C114.18 74.5332 112.7 78.1686 111.341 79.9872C111.146 80.2481 110.955 80.5095 110.766 80.7723C110.202 81.5615 110.955 82.7688 111.883 82.7179C113.735 82.6193 115.586 82.4814 117.437 82.3413C113.635 86.5783 110.478 91.8413 106.987 96.3299C106.75 96.6308 106.518 96.9338 106.285 97.2364C105.401 98.3889 106.287 98.9114 107.494 98.6009C107.744 98.5367 107.994 98.4724 108.243 98.4099C110 97.9595 111.754 97.5091 113.51 97.0606C114.481 96.8106 115.457 96.5023 116.441 96.3112C116.846 96.2336 117.234 96.298 117.617 96.3188C117.433 96.5987 117.176 97.1039 117.125 97.1815C116.551 98.0748 115.974 98.9642 115.393 99.8499C114.261 101.572 113.124 103.292 111.945 104.982C107.346 111.572 102.386 117.862 97.4699 124.211C96.2322 125.808 94.9775 127.389 93.702 128.954C93.7077 128.944 93.7115 128.934 93.7172 128.925C94.8659 126.688 96.0146 124.453 97.1633 122.216C99.3471 117.966 101.51 113.704 103.717 109.465C103.83 109.244 103.946 109.025 104.061 108.803C104.519 107.925 103.768 107.013 102.827 107.198C98.2389 108.102 93.695 109.213 89.2075 110.528C89.0056 110.744 88.7087 110.807 88.4436 110.755C88.2632 110.808 88.0821 110.86 87.9018 110.915C87.9565 110.802 88.013 110.689 88.0681 110.576C87.8847 110.417 87.7935 110.171 87.9127 109.863C90.495 103.2 94.0353 96.7677 98.23 90.8769C98.0612 90.8802 97.8928 90.8826 97.7234 90.8875C93.1192 91.0124 88.602 91.6729 84.1642 92.9274C84.1434 92.5167 84.3913 91.8811 84.5257 91.5783C85.0631 90.3688 85.6801 89.1879 86.2572 87.9976C87.4381 85.5526 88.619 83.1097 89.7999 80.6645C90.9542 78.2762 92.0992 75.8806 93.1854 73.4583C93.755 72.1883 94.3246 70.9166 94.8924 69.6451C95.356 68.6097 95.7213 67.567 96.1054 66.5074C97.2333 66.8386 111.716 66.9103 115.236 67.1547C116.099 67.2152 116.964 67.2701 117.829 67.3174C118.517 67.3571 119.488 67.5085 119.963 66.8859L120.143 67.0371C118.58 68.9068 117.081 70.8278 115.578 72.7466ZM59.0345 38.0094C59.1064 37.9772 59.1764 37.945 59.2465 37.9128C59.2824 37.9639 59.3259 38.0112 59.3714 38.0586C59.4849 38.174 59.5966 38.2987 59.7139 38.4124C59.4868 38.2798 59.2597 38.1454 59.0345 38.0094ZM160.249 144.362C160.119 141.604 159.973 138.847 159.818 136.09C159.511 130.7 159.195 125.311 158.773 119.929C157.916 109.023 157.117 98.1202 155.832 87.2539C155.293 82.6988 154.54 78.178 153.785 73.6549C153.881 73.5679 153.98 73.4808 154.076 73.3958C153.972 74.6333 155.652 75.4169 156.485 74.1829C156.548 74.0904 156.608 73.9976 156.669 73.9011C157.39 72.7354 159.051 67.0163 158.936 66.5318C158.728 65.6594 158.149 64.8837 157.696 64.1154C157.301 63.4434 156.901 62.7716 156.496 62.1057C155.688 60.7713 154.856 59.4506 153.983 58.1579C152.176 55.4822 150.2 52.9123 147.873 50.666C145.464 48.3383 142.699 46.4248 139.843 44.6897C138.471 43.8568 137.056 43.1019 135.614 42.3978C134.19 41.7051 132.633 40.9387 131.1 40.5451C131.013 40.5224 130.924 40.6437 131.004 40.708C131.41 41.0297 131.836 41.3323 132.27 41.6238C131.096 41.2171 129.887 40.9236 128.668 40.8195C126.309 39.9906 123.92 39.2319 121.572 38.3669C119.263 37.5153 116.988 36.5579 115.454 34.5406C114.142 32.8164 113.313 30.7066 112.676 28.6514C111.975 26.3862 111.697 24.0318 111.05 21.7628C110.999 21.5792 110.698 21.5584 110.658 21.7628C110.196 24.1435 110.217 26.8195 110.48 29.2227C110.757 31.7434 111.466 34.217 113.01 36.2665C114.804 38.6491 117.238 39.9755 119.976 41.0333C122.185 41.8889 124.422 42.7592 126.683 43.5238C126.388 43.717 126.089 43.9098 125.781 44.0934C124.554 44.8222 123.279 45.4694 121.975 46.0503C119.594 47.1118 117.087 47.9068 114.564 48.5521C109.869 49.7479 105.055 50.3556 100.214 50.4351C90.5285 50.5959 80.7352 48.5673 71.8768 44.6499C69.3826 43.5467 66.947 42.3334 64.5361 41.06C63.7829 40.6624 63.0259 40.2612 62.2727 39.8487C62.3352 39.8451 62.3995 39.8394 62.462 39.8335C64.1443 39.6748 65.8059 39.3512 67.4334 38.8932C70.7659 37.9527 73.9603 36.486 77.098 35.0419C79.7587 33.8175 82.4989 32.4228 84.1245 29.872C84.9931 28.5076 85.3924 26.9066 85.7161 25.3397C86.0775 23.5949 86.5033 21.8423 86.7663 20.0806C86.8591 19.4637 86.7209 18.6291 86.0586 18.3377C85.7936 18.2221 85.576 18.1275 85.2789 18.1275C84.6222 18.1275 83.9485 18.6045 83.7915 19.2593C83.4035 20.8925 83.1688 22.5711 82.8642 24.2211C82.6011 25.6479 82.3608 27.1375 81.5906 28.392C80.2451 30.5892 77.607 31.7132 75.3777 32.7826C72.5524 34.1375 69.7251 35.4583 66.7899 36.5579C65.4974 37.0422 64.1822 37.4814 62.848 37.8408C62.901 37.5136 62.8556 37.169 62.6626 36.9097C62.3408 36.4821 61.9756 36.1982 61.5612 35.871C61.1108 35.515 60.5052 35.3298 59.9734 35.4868C59.9734 35.4885 59.9715 35.4868 59.9715 35.4868C59.7558 35.4395 59.5174 35.4583 59.2713 35.5699C58.5106 35.9183 57.7517 36.2701 56.9929 36.628C46.0755 41.764 35.4684 47.7969 27.4351 56.9846C26.277 58.3093 25.1926 59.7023 24.1764 61.1384C23.1885 62.5333 21.966 64.0473 21.6935 65.7768C21.6708 65.9208 21.8809 65.987 21.9168 65.8392C21.9812 65.5724 22.0682 65.3112 22.1761 65.0576C21.9509 65.8451 21.9641 66.6815 22.2821 67.5045C22.6586 68.4735 23.3494 69.1152 24.2218 69.3705C23.3456 73.2104 22.757 77.1012 22.2839 81.0354C21.6046 86.7032 21.122 92.3844 20.7587 98.0804C20.032 109.448 19.7084 120.873 19.943 132.262C20.0093 135.48 20.119 138.7 20.2855 141.917C20.3688 143.525 20.4596 145.132 20.5637 146.74C20.6659 148.323 20.5827 150.065 21.9622 150.9C21.9793 150.962 21.9982 151.023 22.0152 151.085C22.3502 152.253 23.8433 151.878 23.9833 150.818C23.9852 150.807 23.9871 150.794 23.989 150.783C25.1169 149.922 24.9466 148.487 24.8633 147.111C24.7744 145.626 24.6797 144.142 24.6003 142.659C24.4489 139.812 24.3202 136.966 24.2048 134.118C23.9796 128.486 23.8528 122.847 23.8111 117.211C23.7279 105.938 24.3789 94.6816 25.151 83.4408C25.4746 78.738 25.8531 74.0561 25.9685 69.3553C26.5722 69.0412 26.7576 68.1482 26.4548 67.5464C33.6044 72.4248 40.2392 78.2573 45.5664 85.0361C46.4559 86.1676 47.3056 87.3334 48.1193 88.5201C48.3842 88.906 48.6359 89.3073 48.8895 89.7083C48.6435 90.8268 48.4524 91.9641 48.2026 93.0371C47.6878 95.2533 47.4702 97.5524 47.175 99.8046C46.5751 104.379 46.1531 108.994 45.7954 113.593C45.0914 122.674 44.5691 131.754 44.4045 140.863C44.3136 146.014 44.1925 151.197 44.4196 156.346C44.2512 157.353 45.1577 158.337 46.1058 158.464C46.9365 158.575 47.7124 158.144 48.0758 157.449C50.6646 157.771 53.3216 157.919 55.8934 157.938C59.3584 157.962 62.8234 157.959 66.2884 157.885C73.2204 157.733 80.1504 157.556 87.0805 157.349C100.941 156.941 114.801 156.53 128.663 156.119C132.506 156.006 136.35 155.892 140.193 155.779C141.927 155.728 144.088 156.227 145.454 154.889C145.689 154.658 145.87 154.388 145.999 154.098C146.408 154.2 146.909 154.1 147.178 153.784C147.68 153.192 148.049 152.643 148.03 151.822C148.013 151.053 147.801 150.243 147.691 149.483C147.483 148.054 147.282 146.625 147.091 145.194C146.714 142.367 146.363 139.536 146.039 136.703C145.377 130.91 144.775 125.104 144.305 119.293C143.374 107.8 143.111 96.2469 143.144 84.7182C143.147 83.6868 143.153 82.6555 143.159 81.6239C143.202 81.679 143.249 81.7299 143.301 81.7736C143.342 81.8094 143.384 81.8453 143.425 81.8834C143.91 82.3092 144.716 82.5287 145.297 82.1256C146.011 81.6636 146.503 80.971 147.059 80.3448C147.644 79.6881 148.245 79.0483 148.853 78.4127C150.03 77.1826 151.247 76.0034 152.488 74.8377C152.589 74.7451 152.689 74.6505 152.789 74.5595C152.797 78.2289 152.793 81.8966 152.891 85.5641C153.039 91.0124 153.334 96.455 153.605 101.896C154.142 112.669 154.699 123.439 155.234 134.211C155.384 137.218 155.526 140.227 155.675 143.234C155.751 144.738 155.825 146.243 155.897 147.747C155.934 148.561 155.972 149.377 156.01 150.19C156.052 151.065 155.997 151.999 156.292 152.83C156.964 154.73 159.867 154.999 160.425 152.83C160.775 151.47 160.506 149.895 160.444 148.498C160.38 147.121 160.315 145.741 160.249 144.362Z" fill="black"/>
</svg>
