<svg width="29" height="20" viewBox="0 0 29 20" fill="none" xmlns="http://www.w3.org/2000/svg">
<path fill-rule="evenodd" clip-rule="evenodd" d="M27.4009 3.17843C26.3584 2.04712 23.1505 4.08079 21.3326 5.37371C21.6401 6.70704 21.7871 8.25586 21.7871 10.0067C21.7871 11.7441 21.6401 13.2659 21.346 14.5993C22.8029 15.6363 25.1821 17.1582 26.5722 17.1582C26.9198 17.1582 27.2138 17.0639 27.4009 16.8484C28.644 15.5151 28.644 4.52523 27.4009 3.17843Z" fill="white"/>
<path fill-rule="evenodd" clip-rule="evenodd" d="M9.90444 0C2.59306 0 0 2.62625 0 10.0067C0 17.3872 2.59306 19.9999 9.90444 19.9999C17.2024 19.9999 19.7821 17.3872 19.7821 10.0067C19.7821 2.62625 17.2024 0 9.90444 0Z" fill="white"/>
</svg>
