<svg width="18" height="16" viewBox="0 0 18 16" fill="none" xmlns="http://www.w3.org/2000/svg">
<path fill-rule="evenodd" clip-rule="evenodd" d="M13.1548 6.34924C12.7773 6.34924 12.4672 6.0531 12.4672 5.68822C12.4672 5.32335 12.769 5.02721 13.1466 5.02721H13.1548C13.5323 5.02721 13.8388 5.32335 13.8388 5.68822C13.8388 6.0531 13.5323 6.34924 13.1548 6.34924ZM8.66712 12.2049C6.70827 12.2049 5.1151 10.6643 5.1151 8.77118C5.1151 6.87893 6.70827 5.33921 8.66712 5.33921C10.626 5.33921 12.2191 6.87893 12.2191 8.77118C12.2191 10.6643 10.626 12.2049 8.66712 12.2049ZM13.7913 2.71455C13.6372 2.66784 13.4129 2.57001 13.2241 2.36995C13.1457 2.2871 13.0399 2.07998 12.9378 1.8808C12.6624 1.3423 12.2857 0.605488 11.5279 0.297016C10.5539 -0.0978282 6.81496 -0.0995909 5.80909 0.295253C5.06129 0.592268 4.6801 1.3326 4.40196 1.87287C4.29708 2.07558 4.18947 2.28534 4.10922 2.36995C3.92136 2.57089 3.69702 2.66784 3.5575 2.71103C0.550815 3.51482 0 5.40355 0 8.83199C0 13.7887 1.25119 16 8.66712 16C16.0821 16 17.3333 13.7887 17.3333 8.83199C17.3333 5.40355 16.7834 3.51482 13.7913 2.71455Z" fill="white"/>
<path fill-rule="evenodd" clip-rule="evenodd" d="M8.66724 6.66079C7.46256 6.66079 6.48313 7.60736 6.48313 8.77162C6.48313 9.93588 7.46256 10.8824 8.66724 10.8824C9.87192 10.8824 10.8513 9.93588 10.8513 8.77162C10.8513 7.60736 9.87192 6.66079 8.66724 6.66079Z" fill="white"/>
</svg>
