<svg width="231" height="250" viewBox="0 0 231 250" fill="none" xmlns="http://www.w3.org/2000/svg">
<g clip-path="url(#clip0_1146_9889)">
<path fill-rule="evenodd" clip-rule="evenodd" d="M185.381 236.997C184.888 232.418 184.584 227.807 184.41 223.205C184.236 218.609 184.463 213.956 184.563 209.357C184.767 200.003 185.098 190.627 184.354 181.287C183.65 172.46 182.035 163.695 179.486 155.214C178.245 151.083 176.937 146.786 174.896 142.97C172.843 139.133 169.591 136.577 166.02 134.234C162.217 131.739 158.445 129.197 154.657 126.679C151.478 124.565 145.756 122.105 143.147 119.279C140.402 116.306 139.886 108.936 138.058 105.414C136.277 101.983 131.238 99.7447 127.358 99.7447C120.935 99.7447 116.068 99.4164 110.787 105.36C108.152 108.326 110.249 111.324 107.487 114.17C104.947 116.787 98.4535 119.476 95.1807 120.995C91.2608 122.813 87.2421 124.419 83.165 125.849C79.0061 127.308 74.7424 128.396 70.5601 129.773C66.5513 131.093 61.3167 136.533 58.2045 139.412C55.3112 142.088 54.5931 141.788 52.3935 145.04C47.566 152.175 42.7333 159.392 38.889 167.118C36.9742 170.966 35.1201 175.014 34.4254 179.288C33.6843 183.846 34.4191 188.251 35.6209 192.664C36.8442 197.156 40.7289 201.432 41.9945 205.912C42.5777 207.977 40.5757 210.23 41.4966 212.175C41.9565 213.147 42.5356 214.012 43.195 214.859C43.7031 215.511 45.6844 215.366 45.9408 216.165C46.1998 216.971 44.7663 218.645 44.745 219.479C44.7147 220.674 44.6672 221.868 44.628 223.062L44.3964 230.123C44.2443 234.763 44.0921 239.403 43.94 244.043C43.8902 245.558 43.8177 247.038 44.1807 248.475C44.0497 248.353 43.9251 248.221 43.8114 248.072C43.4784 247.638 42.7723 248.006 43.0549 248.515C43.5266 249.364 44.2049 249.961 45.0018 250.39C45.9279 251.756 186.182 254.807 186.872 250.814C187.259 248.573 186.555 246.175 186.273 243.948C185.979 241.63 185.631 239.321 185.381 236.997Z" fill="white"/>
<path fill-rule="evenodd" clip-rule="evenodd" d="M42.9094 179.296C43.2525 178.312 44.822 178.738 44.4764 179.728C42.7002 184.818 43.9603 190.356 45.8806 195.215C46.2659 196.19 44.6936 196.609 44.3135 195.647C42.2935 190.536 41.0438 184.641 42.9094 179.296ZM54.8201 208.369C59.8296 209.074 64.8431 209.509 69.8871 209.86C70.1126 209.877 70.3076 209.842 70.4762 209.769C70.3259 212.08 70.204 214.392 70.1086 216.705C68.7333 216.666 67.3296 216.758 65.9665 216.721C64.1849 216.672 62.4054 216.583 60.6279 216.447C57.1867 216.187 53.7516 215.772 50.3489 215.199C49.0773 214.986 47.4623 214.856 46.0139 214.433C44.6447 214.033 43.4259 213.37 42.786 212.122C42.2415 211.065 42.142 209.771 42.142 208.603C42.142 207.798 42.2801 206.981 42.3634 206.17C42.467 206.097 42.5605 206.009 42.6356 205.912C44.147 206.389 45.7153 206.725 47.251 207.05C49.7517 207.582 52.2889 208.013 54.8201 208.369ZM51.9948 189.578C52.0225 191.132 52.4521 192.543 53.288 193.85C53.8536 194.735 52.4464 195.55 51.8847 194.671C50.9007 193.131 50.4022 191.403 50.3697 189.578C50.351 188.53 51.9761 188.534 51.9948 189.578ZM180.406 206.523C181.084 206.561 181.767 206.585 182.447 206.621C183.047 207.134 183.878 207.397 184.637 207.234C184.663 207.3 184.687 207.373 184.708 207.458C184.842 207.981 184.91 208.541 184.987 209.074C185.064 209.598 185.123 210.127 185.163 210.655C185.184 210.921 185.312 211.523 185.149 211.755C185.003 211.964 184.68 211.945 184.457 211.972C183.855 212.037 183.246 212.068 182.64 212.118C181.497 212.218 180.353 212.317 179.211 212.417C178.092 212.515 176.863 212.484 175.768 212.779C175.581 210.582 175.411 208.385 175.252 206.186C176.948 206.436 178.722 206.43 180.406 206.523ZM38.1825 202.88C38.865 204.199 39.4947 205.495 40.801 206.288C40.9716 206.389 41.1625 206.444 41.3576 206.458C41.2113 207.086 41.1199 207.729 41.0386 208.322C40.8599 209.629 40.8213 210.98 41.1483 212.269C41.4673 213.522 41.9954 214.642 43.0314 215.445C43.5129 215.819 44.039 216.103 44.5916 216.329C44.4981 216.591 44.4433 216.851 44.4717 217.138C44.3397 217.802 44.2523 218.479 44.1569 219.127C43.9476 220.566 43.7384 222.007 43.5738 223.454C43.2447 226.331 42.9868 229.209 42.7694 232.097C42.552 234.976 42.3956 237.86 42.2656 240.746C42.1986 242.222 42.1397 243.697 42.0848 245.174C42.03 246.692 41.7842 248.245 42.4545 249.653C42.9949 250.791 44.8211 250.726 45.3818 249.653C46.0928 248.29 45.8836 246.67 45.9018 245.174C45.9201 243.766 45.9445 242.356 45.975 240.947C46.0359 238.064 46.1253 235.182 46.1964 232.298C46.2655 229.484 46.3508 226.671 46.4077 223.856C46.4361 222.383 46.4381 220.91 46.4463 219.436C46.4503 218.619 46.4849 217.748 46.4239 216.896C46.9318 217.016 47.4437 217.117 47.9495 217.221C51.8112 218.014 55.7136 218.591 59.6403 218.948C61.6128 219.127 63.5914 219.253 65.57 219.325C67.0245 219.377 68.5319 219.479 70.0087 219.424C69.8929 222.952 69.8401 226.482 69.8462 230.012C69.8502 232.558 69.8848 235.105 69.9478 237.651C69.9823 238.99 70.0107 240.329 70.0514 241.669C70.0696 242.27 70.0696 242.878 70.1103 243.477C70.1225 243.664 70.1489 243.845 70.1834 244.024C70.0493 244.404 69.9376 244.78 69.8462 245.132C69.3993 246.839 69.3993 248.479 69.5984 250.218C69.769 251.694 71.0102 253.061 72.6495 252.543C72.9157 252.46 73.1818 252.372 73.4459 252.283C75.8592 252.557 78.2867 252.62 80.7346 252.667C84.3119 252.736 87.8913 252.758 91.4706 252.777C98.4912 252.813 105.514 252.832 112.536 252.852C126.649 252.892 140.761 252.931 154.873 252.972C158.79 252.984 162.706 252.994 166.623 253.007C168.65 253.012 170.674 253.014 172.699 253.092C173.644 253.128 174.59 253.179 175.535 253.193C176.63 253.212 177.599 252.897 178.645 252.61C179.236 252.445 179.47 251.852 179.344 251.35C180.29 251.576 181.438 251.096 181.761 250.029C181.997 249.255 181.909 248.416 181.558 247.698V247.696C180.88 243.41 180.018 239.145 179.342 234.857C178.6 230.16 177.887 225.454 177.26 220.739C176.788 217.178 176.4 219.702 176.065 216.126C177.526 216.239 179.177 215.795 180.624 215.605C181.662 215.472 182.708 215.364 183.748 215.221C183.671 216.27 183.693 217.339 183.665 218.345C183.61 220.343 183.634 222.332 183.685 224.33C183.782 228.185 184 225.941 184.347 229.78C184.699 233.647 185.129 237.501 185.651 241.35C185.919 243.331 186.206 245.31 186.509 247.288C186.649 248.21 186.793 249.131 186.941 250.054C187.118 251.141 187.175 252.171 187.989 252.988C188.609 253.608 189.875 253.555 190.285 252.691C190.805 251.6 190.569 250.665 190.376 249.519C190.22 248.598 190.07 247.678 189.921 246.757C189.604 244.784 189.304 242.809 189.021 240.832C188.477 237.021 187.963 233.204 187.504 229.384C187.041 225.533 186.561 227.782 186.106 223.932C185.877 221.989 185.647 220.05 185.379 218.113C185.243 217.117 185.158 216.057 184.979 215.03C185.036 215.022 185.093 215.012 185.15 215.002C186.385 214.776 187.439 214.079 187.75 212.807C188.046 211.59 187.693 210.19 187.443 208.995C187.23 207.977 187.037 206.678 186.382 205.806C188.69 202.865 190.191 199.165 191.148 195.608C192.191 191.732 192.628 187.686 192.72 183.681C192.827 179.041 192.478 174.428 191.683 169.892C191.664 168.93 191.62 167.969 191.549 167.009C190.85 157.588 187.916 146.437 178.617 142.035C178.58 142.017 178.541 142.001 178.503 141.984C177.773 141.113 176.863 140.328 176.128 139.595C174.826 138.294 173.465 137.05 172.023 135.904C169.166 133.634 166.034 131.822 162.778 130.189C159.485 128.537 156.143 126.987 152.925 125.184C150.122 123.611 147.599 121.717 145.204 119.579C142.512 117.175 140.596 113.934 139.845 110.396C139.806 110.211 139.532 110.262 139.528 110.438C139.331 116.923 143.707 122.654 148.742 126.279C154.764 130.61 162.034 132.661 168.14 136.859C169.658 137.902 171.078 139.079 172.429 140.328C170.359 140.117 168.252 140.251 166.312 140.824C165.548 140.777 164.781 140.763 164.015 140.726C162.264 140.639 160.51 140.558 158.757 140.481C155.184 140.322 151.609 140.178 148.033 140.052C141.019 139.804 134.002 139.617 126.986 139.493C112.886 139.243 98.7675 139.194 84.6695 139.603C80.8463 139.713 60.7434 138.951 58.8826 139.166C61.6189 136.796 64.6214 134.862 67.9224 133.27C72.0523 131.285 76.3203 129.96 80.7305 128.749C89.813 126.255 99.2449 123.851 106.513 117.517C108.319 115.942 109.924 114.131 111.238 112.125C112.494 110.211 113.889 107.76 113.924 105.425C113.948 103.767 111.641 103.163 110.82 104.584C110.31 105.463 110.058 106.429 109.642 107.351C109.227 108.266 108.736 109.148 108.189 109.991C107.115 111.65 105.782 113.129 104.332 114.464C101.24 117.313 97.4938 119.4 93.6179 120.979C84.8177 124.562 75.1929 126.074 66.8539 130.797C63.2055 132.864 59.7135 135.715 57.5216 139.353C57.1681 139.408 56.8167 139.473 56.4652 139.546C56.7273 139.215 56.9914 138.883 57.2575 138.554C57.4322 138.339 57.162 138.054 56.9487 138.245C52.8026 141.936 48.9835 145.921 45.522 150.266C42.2108 154.424 39.123 158.781 36.9372 163.65C33.0084 172.397 32.143 182.401 34.1724 191.754C34.725 194.302 35.505 196.797 36.4984 199.21C37.0103 200.455 37.5649 201.683 38.1825 202.88Z" fill="black"/>
<path fill-rule="evenodd" clip-rule="evenodd" d="M127.69 20.4624C139.225 20.4624 153.671 33.6252 157.899 39.2265C161.454 43.9358 160.951 68.1966 160.951 82.5881C160.951 85.598 159.591 91.2946 159.098 94.1737C157.288 104.724 149.406 113.572 133.805 113.572C121.102 113.572 111.326 109.547 101.873 99.2519C99.7163 96.9032 89.1837 105.311 87.0297 102.283C81.4033 102.283 76.6988 49.6942 87.7453 33.9205C98.7919 18.1468 116.156 20.4624 127.69 20.4624Z" fill="white"/>
<path fill-rule="evenodd" clip-rule="evenodd" d="M93.0228 24.1666C99.6878 18.1004 108.567 15.1822 117.526 15.3976C122.165 15.5093 126.789 16.3934 131.171 17.9074C133.363 18.6674 135.486 19.6591 137.515 20.7809C138.246 21.1842 138.92 21.6568 139.569 22.1587L139.731 22.2847H139.733C141.474 22.9107 143.028 24.0345 144.438 25.3493C147.264 25.1237 150.112 25.3778 152.844 26.2496C156.647 27.4649 160.167 29.6901 162.639 32.8502C165.519 36.5292 166.477 40.9917 166.135 45.5984L166.072 46.381C165.734 50.4504 165.129 55.6847 161.79 58.3586C161.536 58.5618 161.256 58.7163 160.966 58.8097C163.117 62.4962 164.882 66.5891 165.939 70.7226C169.971 86.5108 166.871 102.976 162.022 118.193C161.624 119.447 159.728 120.28 158.764 119.055C157.041 116.864 154.538 115.194 151.723 114.881C149.986 114.688 148.257 115.037 146.616 114.249C145.972 113.938 145.35 113.43 144.903 112.812C142.132 113.862 139.148 114.358 136.188 114.236C131.331 114.037 126.139 112.355 122.797 108.664C122.261 108.072 122.125 107.406 122.249 106.807C122.668 106.657 123.098 106.546 123.541 106.476C127.779 108.975 132.45 110.644 137.47 110.749C140.37 110.81 143.2 110.404 145.552 108.592C146.061 108.2 146.529 107.765 146.961 107.299C151.879 104.134 155.346 98.7592 156.994 93.0017C158.53 87.6326 158.341 82.042 157.813 76.5347L157.534 73.6285C157.128 69.3631 156.751 65.0849 156.646 60.8013L156.677 60.7997C157.716 60.7326 157.723 59.1062 156.677 59.1739C153.972 59.3491 151.287 58.905 148.589 59.0985C148.567 57.8229 148.475 56.553 148.1 55.3227C147.886 54.6197 146.663 54.4811 146.533 55.3227C146.36 56.4485 146.296 57.5681 146.277 58.699C142.241 58.6453 138.208 58.3055 134.171 58.4452C133.426 57.6506 133.189 56.2416 132.841 55.2615C132.79 55.1172 132.739 54.9749 132.686 54.8307C132.38 56.2313 131.946 57.6012 131.375 58.9422L130.385 58.9456C124.767 58.972 119.035 59.1399 113.549 60.3071C113.168 60.0142 112.941 59.5033 112.88 59.0394C112.482 56.0204 111.914 53.0816 110.908 50.2046L110.764 49.7987C110.752 49.765 110.739 49.7292 110.726 49.6916C109.985 50.8892 109.1 52.0055 108.135 53.0449C107.566 53.6577 106.969 54.2436 106.357 54.8128C105.763 55.4732 105.148 56.1238 104.553 56.7863C104.576 56.9068 104.596 57.0291 104.613 57.1537C104.795 58.5285 104.814 59.9228 104.68 61.3029C104.439 63.7978 103.735 66.2019 102.604 68.426L102.568 68.6487C102.396 69.6909 102.152 70.7681 101.581 71.5529C102.294 72.3512 102.842 73.3047 103.16 74.3641C103.444 75.3073 102.139 76.1246 101.463 75.3528C100.925 74.7396 100.328 74.2322 99.6726 73.8274C99.6312 73.8837 99.5564 73.9113 99.4725 73.8644C97.6463 72.8503 94.5443 73.1572 92.7201 74.1123C90.451 75.2991 89.5653 77.7357 89.8172 80.2049C90.0589 82.5643 91.0909 85.322 93.0918 86.5312C94.01 87.086 94.7251 87.1327 95.7002 86.8665C96.0119 86.7818 96.3985 86.522 96.5644 86.3929L96.7276 86.262C97.3669 85.7566 97.9622 85.4105 98.7168 85.3972C99.4886 85.1564 100.264 85.4904 100.559 86.3L100.578 86.3523C100.716 86.7649 100.968 87.2831 100.913 87.9131C100.856 88.5878 100.547 89.2015 100.086 89.6953C100.007 89.7807 99.9215 89.866 99.8341 89.9453C107.777 98.5476 108.797 111.952 104.724 122.698C104.547 123.17 104.358 123.635 104.161 124.097C103.48 125.678 100.86 125.188 100.527 123.621C100.427 123.152 100.318 122.684 100.198 122.221C99.9774 121.365 99.725 120.516 99.4405 119.681L99.3323 119.368C99.0906 118.677 98.8651 117.98 98.6213 117.289L98.597 117.21C98.5878 117.178 98.5777 117.142 98.5665 117.102L98.1541 118.002L96.9007 120.719C96.3142 121.987 94.4507 121.298 94.3814 120.076L94.3797 120.034C94.3736 119.809 94.3655 119.585 94.3513 119.364C94.2619 117.703 93.9755 116.09 93.5204 114.511L93.3563 114.715C90.9117 117.738 88.0427 120.572 84.1069 121.27C83.1196 121.445 82.0023 120.412 82.6808 119.414C82.9611 119.002 83.2313 118.579 83.4873 118.15C83.2658 118.047 83.0566 117.939 82.8636 117.829C81.3705 116.99 80.1273 115.795 79.0994 114.44C76.9197 111.566 76.1396 107.949 75.9487 104.409C75.7455 100.667 76.0746 96.7227 77.0964 93.1135C77.5393 91.5528 78.1385 90.055 78.8313 88.602C78.7825 88.4719 78.7358 88.3419 78.6891 88.2118C77.9415 86.1268 77.328 83.995 76.8181 81.8388C75.7902 77.4858 75.2377 72.9946 75.1706 68.5217C75.0488 60.5087 76.4301 52.3676 79.3411 44.8952C82.3476 37.189 86.8696 29.7653 93.0228 24.1666ZM89.2789 94.2251C88.7268 93.3555 87.3455 94.1392 87.8581 95.0148L87.8772 95.0461C88.7527 96.426 89.1631 97.9949 89.6669 99.5333C89.9899 100.523 91.5601 100.1 91.2331 99.1004L91.1248 98.7666C90.6235 97.2065 90.1662 95.6211 89.2789 94.2251ZM94.0871 77.626L94.4539 77.4484C95.6108 76.8961 96.6245 76.5199 97.9915 77.0021C99.8218 77.6463 101.782 79.6968 100.545 81.6863C100.09 82.42 99.2814 82.7126 98.4485 82.5399C97.0444 82.2486 96.6821 80.9836 95.9695 79.9453L95.8469 79.7694C95.4125 79.1411 94.8631 78.2726 94.1399 78.0263C93.9754 77.9694 93.9063 77.7133 94.0871 77.626ZM95.1194 35.3847L95.2375 35.2787C96.0237 34.5837 94.8698 33.4376 94.0877 34.1285C90.5084 37.2927 89.2652 42.2452 87.4084 46.4661C86.992 47.4151 88.3916 48.2443 88.8121 47.2871C90.5833 43.2594 91.7589 38.4413 95.1194 35.3847ZM138.133 34.0005C137.198 33.5789 136.379 34.9405 137.278 35.3888L137.312 35.4048C140.473 36.8334 141.818 40.0687 143.106 43.0723C143.516 44.0315 144.916 43.2044 144.509 42.2533L144.277 41.7144C142.933 38.619 141.366 35.464 138.133 34.0005ZM143.087 32.0455C142.096 31.702 141.671 33.2709 142.654 33.6144C145.334 34.5471 147.172 36.559 148.722 38.8595C149.303 39.7211 150.711 38.9083 150.124 38.0385C148.324 35.3681 146.187 33.1266 143.087 32.0455Z" fill="black"/>
<path fill-rule="evenodd" clip-rule="evenodd" d="M137.646 99.3023C136.281 98.745 135.062 97.8154 134.171 96.6278C133.862 96.215 133.781 95.7791 133.846 95.3803C133.919 94.932 134.185 94.5256 134.546 94.2531C134.909 93.9797 135.363 93.8448 135.801 93.9136C136.182 93.9733 136.562 94.1821 136.862 94.6151L136.925 94.7017C137.454 95.4184 138.144 96.0065 138.931 96.3855C139.689 96.7509 140.536 96.9214 141.413 96.8223C143.084 96.6335 144.236 95.7296 145.459 94.5022C145.611 94.3473 145.763 94.1875 145.915 94.0251C146.012 93.8779 146.145 93.7833 146.294 93.7336C146.459 93.6785 146.645 93.6816 146.816 93.7412C146.981 93.7987 147.128 93.9077 147.227 94.0527C147.32 94.1905 147.374 94.3608 147.356 94.5566C147.244 95.8286 146.579 96.9638 145.635 97.8551C144.587 98.8451 143.196 99.53 141.888 99.7702C140.446 100.035 138.977 99.8452 137.646 99.3023ZM142.568 79.6794C144.102 80.6122 146.439 82.7872 144.789 85.0998C142.847 87.1388 140.05 84.8009 138.672 83.7436C137.394 82.9241 135.958 85.0317 137.144 85.9885C147.102 93.3645 151.144 79.9233 143.344 78.5826C142.485 78.4349 142.166 79.3908 142.568 79.6794ZM124.722 71.0992C124.891 68.9946 128.096 68.5167 128.414 70.5993C128.7 72.4648 128.364 74.1786 127.524 75.8582C126.721 77.4629 124.704 76.7142 124.551 75.2531C124.347 73.2944 124.617 72.4084 124.722 71.0992ZM149.112 70.1674C149.559 69.5822 150.204 69.1826 150.977 69.4084C153.391 70.1142 152.679 73.5431 151.831 75.2122C151.371 76.1186 149.882 76.3484 149.209 75.5504C148.112 74.2489 147.586 71.6499 148.981 70.368C149.019 70.3018 149.061 70.2349 149.112 70.1674ZM127.49 61.89L127.871 61.8233C129.051 61.6191 130.518 61.423 131.352 62.3719C131.795 62.8751 131.947 63.8103 131.352 64.2919C130.306 65.1393 129.149 64.8109 127.895 64.8827C126.861 64.942 125.868 65.1131 124.872 65.3978C122.688 66.0223 120.908 67.1624 119.043 68.4143C118.798 68.5785 118.548 68.2653 118.665 68.0363C119.742 65.9262 121.828 64.1929 123.919 63.1364C125.034 62.5725 126.255 62.1046 127.49 61.89ZM146.911 60.9448L147.203 61.0046C150.38 61.6688 154.507 62.9957 156.011 66.1171C156.068 66.5585 156.008 66.6531 155.959 66.7149L155.942 66.7354C155.902 66.7882 155.869 66.861 155.678 66.921C155.625 66.9084 155.571 66.895 155.517 66.8808C154.828 66.7 154.282 66.451 153.754 66.1926L153.181 65.9104C152.517 65.5845 151.847 65.2704 151.136 65.0386C149.62 64.544 148.061 64.1955 146.478 64.0095C146.135 63.9692 145.804 63.8533 145.544 63.6547C145.296 63.4662 145.107 63.2053 145.021 62.8584C144.909 62.4095 144.941 62.0696 145.182 61.6646C145.363 61.3604 145.622 61.1496 145.92 61.0286C146.223 60.9052 146.568 60.8761 146.911 60.9448Z" fill="black"/>
<path fill-rule="evenodd" clip-rule="evenodd" d="M159.697 81.4982C158.329 83.3363 155.793 83.9218 153.455 83.7196C148.41 83.2339 146.823 77.5028 146.657 73.0484C150.04 74.0003 146.371 67.2587 157.934 66.5173C162.01 66.1775 160.886 68.6402 162.687 70.4395C162.65 74.2157 162.022 78.319 159.697 81.4982ZM135.671 77.159C132.693 91.1108 116.385 87.7922 114.672 75.2156C116.254 74.0987 115.837 71.3408 117.803 70.3415C120.917 68.3508 124.811 68.4359 128.348 68.4827C132.868 68.7934 134.157 70.6669 136.479 72.7109C136.367 74.0761 136.045 75.6942 135.671 77.159ZM166.157 64.2067C165.99 64.1788 165.822 64.1526 165.655 64.128C165.524 64.0539 165.371 63.9968 165.193 63.9624C164.785 63.859 164.381 63.7893 163.977 63.7517C158.181 62.4468 144.772 64.2996 144.219 69.2476C142.373 69.864 140.776 69.312 138.637 69.3669C137.008 62.5579 108.856 63.519 107.502 67.6241C107.497 67.6226 107.492 67.6214 107.487 67.6198C106.186 67.217 104.268 67.3141 102.779 67.2503C99.5996 67.1837 96.4166 67.4672 93.3059 68.138C87.4808 69.0641 79.5308 70.1483 83.5821 77.4252C83.5829 77.4264 83.5835 77.4279 83.5845 77.4291L83.5851 77.4285C84.2833 78.1444 85.4683 77.5679 85.5123 76.5987C84.1503 73.1513 87.2267 72.7373 89.5937 71.7466C95.4834 69.6299 101.48 69.3364 107.571 69.9912C108.029 70.5309 108.725 71.0016 109.46 71.2479C113.533 71.9242 111.386 74.9465 113.961 75.3861C113.488 85.9215 126.274 91.6723 133.682 84.7467C136.64 81.8536 137.345 77.5679 138.031 73.7048C138.393 73.6234 138.624 73.425 138.759 73.1625C139.631 72.2914 140.179 71.4871 141.903 71.2479C143.628 71.0089 144.955 71.4887 145.135 71.6356C145.18 71.7269 145.229 71.8183 145.285 71.9098C145.364 72.0462 145.471 72.1549 145.593 72.2404C143.89 82.7315 152.031 89.3663 160.25 83.9251C163.822 80.5644 164.576 75.4192 164.725 70.8268C165.209 70.5346 165.516 69.9682 165.348 69.2561C165.117 68.2746 165.659 67.4247 166.522 66.9979C167.642 66.4437 167.444 64.4199 166.157 64.2067Z" fill="black"/>
</g>
<defs>
<clipPath id="clip0_1146_9889">
<rect width="230.4" height="249.6" fill="white" transform="scale(1.0016)"/>
</clipPath>
</defs>
</svg>
