<svg width="19" height="19" viewBox="0 0 19 19" fill="none" xmlns="http://www.w3.org/2000/svg">
<path d="M11.1015 5.54168H11.8932C12.1031 5.54189 12.3043 5.62536 12.4527 5.77378C12.6011 5.9222 12.6846 6.12345 12.6848 6.33334V7.12501C12.6848 7.33497 12.7682 7.53634 12.9167 7.6848C13.0652 7.83327 13.2665 7.91668 13.4765 7.91668C13.6865 7.91668 13.8878 7.83327 14.0363 7.6848C14.1848 7.53634 14.2682 7.33497 14.2682 7.12501V6.33334C14.2675 5.70365 14.0171 5.09992 13.5718 4.65466C13.1266 4.2094 12.5229 3.95897 11.8932 3.95834H11.1015C10.8915 3.95834 10.6902 4.04175 10.5417 4.19022C10.3932 4.33868 10.3098 4.54005 10.3098 4.75001C10.3098 4.95997 10.3932 5.16134 10.5417 5.3098C10.6902 5.45827 10.8915 5.54168 11.1015 5.54168ZM7.93483 12.6667H7.14316C6.93326 12.6665 6.73202 12.583 6.5836 12.4346C6.43518 12.2862 6.3517 12.0849 6.35149 11.875V11.0833C6.35149 10.8734 6.26809 10.672 6.11962 10.5236C5.97115 10.3751 5.76979 10.2917 5.55983 10.2917C5.34986 10.2917 5.1485 10.3751 5.00003 10.5236C4.85157 10.672 4.76816 10.8734 4.76816 11.0833V11.875C4.76879 12.5047 5.01921 13.1084 5.46448 13.5537C5.90974 13.999 6.51346 14.2494 7.14316 14.25H7.93483C8.14479 14.25 8.34615 14.1666 8.49462 14.0181C8.64309 13.8697 8.72649 13.6683 8.72649 13.4583C8.72649 13.2484 8.64309 13.047 8.49462 12.8986C8.34615 12.7501 8.14479 12.6667 7.93483 12.6667ZM16.6432 11.875C16.8531 11.875 17.0545 11.7916 17.203 11.6431C17.3514 11.4947 17.4348 11.2933 17.4348 11.0833C17.4348 10.8734 17.3514 10.672 17.203 10.5236C17.0545 10.3751 16.8531 10.2917 16.6432 10.2917H14.2682V9.89584C14.2682 9.68588 14.1848 9.48452 14.0363 9.33605C13.8878 9.18759 13.6865 9.10418 13.4765 9.10418C13.2665 9.10418 13.0652 9.18759 12.9167 9.33605C12.7682 9.48452 12.6848 9.68588 12.6848 9.89584V10.2917H10.3098C10.0999 10.2917 9.8985 10.3751 9.75003 10.5236C9.60157 10.672 9.51816 10.8734 9.51816 11.0833C9.51816 11.2933 9.60157 11.4947 9.75003 11.6431C9.8985 11.7916 10.0999 11.875 10.3098 11.875H14.4138C14.2349 12.6027 13.9044 13.2843 13.444 13.8756C13.2554 13.6312 13.0885 13.3708 12.9453 13.0973C12.8997 13.0017 12.8355 12.9162 12.7563 12.8459C12.6771 12.7755 12.5846 12.7218 12.4843 12.6879C12.384 12.6539 12.2779 12.6404 12.1722 12.6482C12.0666 12.656 11.9636 12.685 11.8694 12.7333C11.7751 12.7816 11.6915 12.8483 11.6236 12.9295C11.5556 13.0107 11.5046 13.1048 11.4736 13.206C11.4426 13.3073 11.4322 13.4138 11.4431 13.5191C11.454 13.6245 11.4859 13.7265 11.5369 13.8193C11.7503 14.2314 12.005 14.6208 12.2969 14.9815C11.7223 15.3987 11.0689 15.6947 10.3763 15.8516C10.1712 15.8964 9.99227 16.0209 9.87891 16.1976C9.76556 16.3744 9.72706 16.5889 9.77189 16.794C9.81672 16.9992 9.9412 17.1781 10.1179 17.2914C10.2947 17.4048 10.5092 17.4433 10.7144 17.3985C11.7077 17.1787 12.6394 16.74 13.4417 16.1144C14.2507 16.7405 15.1887 17.1791 16.188 17.3985C16.3931 17.4436 16.6077 17.4054 16.7847 17.2923C16.9617 17.1792 17.0865 17.0004 17.1316 16.7952C17.1768 16.5901 17.1386 16.3754 17.0254 16.1985C16.9123 16.0215 16.7335 15.8967 16.5284 15.8516C15.8316 15.6966 15.173 15.4032 14.592 14.9886C15.3241 14.0877 15.8177 13.0169 16.0272 11.875H16.6432ZM7.16691 8.90072C7.21914 9.10307 7.34926 9.27656 7.5289 9.38336C7.70854 9.49015 7.92311 9.52158 8.12583 9.4708C8.32855 9.42001 8.50297 9.29113 8.61104 9.11226C8.71911 8.93339 8.75208 8.71905 8.70274 8.51597L7.31178 2.95055C7.21417 2.55978 6.98872 2.21286 6.67127 1.96496C6.35382 1.71706 5.9626 1.5824 5.55983 1.5824C5.15705 1.5824 4.76583 1.71706 4.44838 1.96496C4.13094 2.21286 3.90548 2.55978 3.80787 2.95055L2.41691 8.51597C2.36757 8.71905 2.40054 8.93339 2.50861 9.11226C2.61669 9.29113 2.7911 9.42001 2.99382 9.4708C3.19654 9.52158 3.41112 9.49015 3.59075 9.38336C3.77039 9.27656 3.90051 9.10307 3.95274 8.90072L4.39608 7.12501H6.72358L7.16691 8.90072ZM4.79191 5.54168L5.34449 3.3353C5.3611 3.29164 5.39058 3.25405 5.42904 3.22753C5.4675 3.20101 5.51311 3.18681 5.55983 3.18681C5.60654 3.18681 5.65215 3.20101 5.69061 3.22753C5.72907 3.25405 5.75856 3.29164 5.77516 3.3353L6.32695 5.54168H4.79191Z" fill="white"/>
</svg>
