<svg width="360" height="70" viewBox="0 0 360 70" fill="none" xmlns="http://www.w3.org/2000/svg">
<path fill-rule="evenodd" clip-rule="evenodd" d="M180 38.2609C193.239 38.2609 204.908 31.5364 211.777 21.3167C218.743 10.9536 228.383 -3.53398e-07 240.87 0L353.043 3.17481e-06C356.885 3.17481e-06 360 3.11454 360 6.95653V62.6087C360 66.4507 356.885 69.5652 353.043 69.5652H6.95651C3.11453 69.5652 0 66.4507 0 62.6087V6.95653C0 3.11455 3.11454 3.17481e-06 6.95652 3.17481e-06L119.13 0C131.617 -3.53399e-07 141.257 10.9536 148.223 21.3167C155.092 31.5364 166.761 38.2609 180 38.2609Z" fill="white"/>
</svg>
