<svg width="17" height="17" viewBox="0 0 17 17" fill="none" xmlns="http://www.w3.org/2000/svg">
<path d="M14.3556 3.54148C14.3556 4.42799 13.6369 5.14666 12.7504 5.14666C11.8639 5.14666 11.1452 4.42799 11.1452 3.54148C11.1452 2.65496 11.8639 1.9363 12.7504 1.9363C13.6369 1.9363 14.3556 2.65496 14.3556 3.54148Z" stroke="white" stroke-linecap="round" stroke-linejoin="round"/>
<path d="M5.85354 8.49953C5.85354 9.38605 5.13488 10.1047 4.24836 10.1047C3.36184 10.1047 2.64318 9.38605 2.64318 8.49953C2.64318 7.61302 3.36184 6.89435 4.24836 6.89435C5.13488 6.89435 5.85354 7.61302 5.85354 8.49953Z" stroke="white" stroke-linecap="round" stroke-linejoin="round"/>
<path d="M14.3556 13.4576C14.3556 14.3441 13.6369 15.0628 12.7504 15.0628C11.8639 15.0628 11.1452 14.3441 11.1452 13.4576C11.1452 12.5711 11.8639 11.8524 12.7504 11.8524C13.6369 11.8524 14.3556 12.5711 14.3556 13.4576Z" stroke="white" stroke-linecap="round" stroke-linejoin="round"/>
<path d="M6.08216 9.56907L10.9198 12.3881" stroke="white" stroke-linecap="round" stroke-linejoin="round"/>
<path d="M10.9127 4.61101L6.08216 7.43002" stroke="white" stroke-linecap="round" stroke-linejoin="round"/>
</svg>
