<svg width="20" height="20" viewBox="0 0 20 20" fill="none" xmlns="http://www.w3.org/2000/svg">
<path d="M12.1073 7.89166L7.89063 12.1083C7.34896 11.5667 7.01562 10.825 7.01562 10C7.01562 8.35 8.34896 7.01666 9.99896 7.01666C10.824 7.01666 11.5656 7.35 12.1073 7.89166Z" stroke="#979797" stroke-width="1.5" stroke-linecap="round" stroke-linejoin="round"/>
<path d="M14.8518 4.80834C13.3935 3.70834 11.7268 3.10834 10.0018 3.10834C7.06016 3.10834 4.31849 4.84167 2.41016 7.84167C1.66016 9.01667 1.66016 10.9917 2.41016 12.1667C3.06849 13.2 3.83516 14.0917 4.66849 14.8083" stroke="#979797" stroke-width="1.5" stroke-linecap="round" stroke-linejoin="round"/>
<path d="M7.01562 16.275C7.96563 16.675 8.97396 16.8917 9.99896 16.8917C12.9406 16.8917 15.6823 15.1583 17.5906 12.1583C18.3406 10.9833 18.3406 9.00834 17.5906 7.83334C17.3156 7.4 17.0156 6.99167 16.7073 6.60834" stroke="#979797" stroke-width="1.5" stroke-linecap="round" stroke-linejoin="round"/>
<path d="M12.9242 10.5833C12.7076 11.7583 11.7492 12.7166 10.5742 12.9333" stroke="#979797" stroke-width="1.5" stroke-linecap="round" stroke-linejoin="round"/>
<path d="M7.89297 12.1083L1.66797 18.3333" stroke="#979797" stroke-width="1.5" stroke-linecap="round" stroke-linejoin="round"/>
<path d="M18.3344 1.66669L12.1094 7.89169" stroke="#979797" stroke-width="1.5" stroke-linecap="round" stroke-linejoin="round"/>
</svg>
