<svg width="24" height="24" viewBox="0 0 24 24" fill="none" xmlns="http://www.w3.org/2000/svg">
<g clip-path="url(#clip0_0_257)">
<path d="M22 3.00001H7C6.31 3.00001 5.77 3.35001 5.41 3.88001L0 12L5.41 20.11C5.77 20.64 6.31 21 7 21H22C23.1 21 24 20.1 24 19V5.00001C24 3.90001 23.1 3.00001 22 3.00001ZM22 19H7.07L2.4 12L7.06 5.00001H22V19ZM10.41 17L14 13.41L17.59 17L19 15.59L15.41 12L19 8.41001L17.59 7.00001L14 10.59L10.41 7.00001L9 8.41001L12.59 12L9 15.59L10.41 17Z" fill="#3D3D3F"/>
</g>
<defs>
<clipPath id="clip0_0_257">
<rect width="23.04" height="23.04" fill="white" transform="scale(1.04167)"/>
</clipPath>
</defs>
</svg>
